<?xml version="1.0" encoding="UTF-8" standalone="no"?>
<!-- Generator: Adobe Illustrator 16.0.0, SVG Export Plug-In . SVG Version: 6.00 Build 0)  -->

<svg
   xmlns:dc="http://purl.org/dc/elements/1.1/"
   xmlns:cc="http://creativecommons.org/ns#"
   xmlns:rdf="http://www.w3.org/1999/02/22-rdf-syntax-ns#"
   xmlns:svg="http://www.w3.org/2000/svg"
   xmlns="http://www.w3.org/2000/svg"
   xmlns:sodipodi="http://sodipodi.sourceforge.net/DTD/sodipodi-0.dtd"
   xmlns:inkscape="http://www.inkscape.org/namespaces/inkscape"
   version="1.1"
   id="Layer_1"
   x="0px"
   y="0px"
   width="434.18457"
   height="300"
   viewBox="0 0 434.18457 300"
   enable-background="new 0 0 612 792"
   xml:space="preserve"
   sodipodi:docname="bottom_right_triangles.svg"
   inkscape:version="0.92.2 (unknown)"><metadata
     id="metadata69"><rdf:RDF><cc:Work
         rdf:about=""><dc:format>image/svg+xml</dc:format><dc:type
           rdf:resource="http://purl.org/dc/dcmitype/StillImage" /></cc:Work></rdf:RDF></metadata><defs
     id="defs67" /><sodipodi:namedview
     pagecolor="#ffffff"
     bordercolor="#666666"
     borderopacity="1"
     objecttolerance="10"
     gridtolerance="10"
     guidetolerance="10"
     inkscape:pageopacity="0"
     inkscape:pageshadow="2"
     inkscape:window-width="1863"
     inkscape:window-height="1056"
     id="namedview65"
     showgrid="false"
     inkscape:zoom="0.2979798"
     inkscape:cx="274.30899"
     inkscape:cy="-225.51499"
     inkscape:window-x="57"
     inkscape:window-y="24"
     inkscape:window-maximized="1"
     inkscape:current-layer="Layer_1" /><polygon
     points="121.293,92.059 108.604,114.04 133.984,114.04 "
     id="polygon2"
     transform="matrix(2.8347877,0,0,2.8347877,-89.837271,-183.28893)"
     style="fill:#ffd056" /><polygon
     stroke-miterlimit="10"
     points="121.293,92.059 108.604,114.04 133.984,114.04 "
     id="polygon4"
     transform="matrix(2.8347877,0,0,2.8347877,-89.837271,-183.28893)"
     style="fill:none;stroke:#ffd056;stroke-miterlimit:10" /><polygon
     points="135.369,117.782 109.988,117.782 122.68,139.764 "
     id="polygon6"
     transform="matrix(2.8347877,0,0,2.8347877,-89.837271,-183.28893)"
     style="fill:#ffe189" /><polygon
     stroke-miterlimit="10"
     points="135.369,117.782 109.988,117.782 122.68,139.764 "
     id="polygon8"
     transform="matrix(2.8347877,0,0,2.8347877,-89.837271,-183.28893)"
     style="fill:none;stroke:#ffe189;stroke-miterlimit:10" /><polygon
     points="106.92,119.047 94.229,141.028 119.609,141.028 "
     id="polygon10"
     transform="matrix(2.8347877,0,0,2.8347877,-89.837271,-183.28893)"
     style="fill:#ffe189" /><polygon
     stroke-miterlimit="10"
     points="106.92,119.047 94.229,141.028 119.609,141.028 "
     id="polygon12"
     transform="matrix(2.8347877,0,0,2.8347877,-89.837271,-183.28893)"
     style="fill:none;stroke:#ffe189;stroke-miterlimit:10" /><polygon
     points="73.25,120.34 60.561,142.323 85.941,142.323 "
     id="polygon14"
     transform="matrix(2.8347877,0,0,2.8347877,-89.837271,-183.28893)"
     style="fill:#ffd056" /><polygon
     stroke-miterlimit="10"
     points="73.25,120.34 60.561,142.323 85.941,142.323 "
     id="polygon16"
     transform="matrix(2.8347877,0,0,2.8347877,-89.837271,-183.28893)"
     style="fill:none;stroke:#ffd056;stroke-miterlimit:10" /><polygon
     points="123.861,147.502 111.17,169.485 136.551,169.485 "
     id="polygon18"
     transform="matrix(2.8347877,0,0,2.8347877,-89.837271,-183.28893)"
     style="fill:#ffe189" /><polygon
     stroke-miterlimit="10"
     points="123.861,147.502 111.17,169.485 136.551,169.485 "
     id="polygon20"
     transform="matrix(2.8347877,0,0,2.8347877,-89.837271,-183.28893)"
     style="fill:none;stroke:#ffe189;stroke-miterlimit:10" /><polygon
     points="119.609,145.875 94.229,145.875 106.92,167.856 "
     id="polygon22"
     transform="matrix(2.8347877,0,0,2.8347877,-89.837271,-183.28893)"
     style="fill:#ffe189" /><polygon
     stroke-miterlimit="10"
     points="119.609,145.875 94.229,145.875 106.92,167.856 "
     id="polygon24"
     transform="matrix(2.8347877,0,0,2.8347877,-89.837271,-183.28893)"
     style="fill:none;stroke:#ffe189;stroke-miterlimit:10" /><polygon
     points="138.242,65.657 125.551,87.637 150.932,87.637 "
     id="polygon26"
     transform="matrix(2.8347877,0,0,2.8347877,-89.837271,-183.28893)"
     style="fill:#ffd056" /><polygon
     stroke-miterlimit="10"
     points="138.242,65.657 125.551,87.637 150.932,87.637 "
     id="polygon28"
     transform="matrix(2.8347877,0,0,2.8347877,-89.837271,-183.28893)"
     style="fill:none;stroke:#ffd056;stroke-miterlimit:10" /><polygon
     points="152.316,91.381 126.936,91.381 139.627,113.362 "
     id="polygon30"
     transform="matrix(2.8347877,0,0,2.8347877,-89.837271,-183.28893)"
     style="fill:#ffd056" /><polygon
     stroke-miterlimit="10"
     points="152.316,91.381 126.936,91.381 139.627,113.362 "
     id="polygon32"
     transform="matrix(2.8347877,0,0,2.8347877,-89.837271,-183.28893)"
     style="fill:none;stroke:#ffd056;stroke-miterlimit:10" /><polygon
     points="154.1,95.375 141.408,117.358 166.791,117.358 "
     id="polygon34"
     transform="matrix(2.8347877,0,0,2.8347877,-89.837271,-183.28893)"
     style="fill:#ffe189" /><polygon
     stroke-miterlimit="10"
     points="154.1,95.375 141.408,117.358 166.791,117.358 "
     id="polygon36"
     transform="matrix(2.8347877,0,0,2.8347877,-89.837271,-183.28893)"
     style="fill:none;stroke:#ffe189;stroke-miterlimit:10" /><polygon
     points="166.791,120.737 141.408,120.737 154.1,142.717 "
     id="polygon38"
     transform="matrix(2.8347877,0,0,2.8347877,-89.837271,-183.28893)"
     style="fill:#ffe189" /><polygon
     stroke-miterlimit="10"
     points="166.791,120.737 141.408,120.737 154.1,142.717 "
     id="polygon40"
     transform="matrix(2.8347877,0,0,2.8347877,-89.837271,-183.28893)"
     style="fill:none;stroke:#ffe189;stroke-miterlimit:10" /><polygon
     points="152.221,146.43 126.84,146.43 139.529,168.411 "
     id="polygon42"
     transform="matrix(2.8347877,0,0,2.8347877,-89.837271,-183.28893)"
     style="fill:#fff6bf" /><polygon
     stroke-miterlimit="10"
     points="152.221,146.43 126.84,146.43 139.529,168.411 "
     id="polygon44"
     transform="matrix(2.8347877,0,0,2.8347877,-89.837271,-183.28893)"
     style="fill:none;stroke:#fff6bf;stroke-miterlimit:10" /><polygon
     points="182.439,92.053 157.057,92.053 169.748,114.034 "
     id="polygon46"
     transform="matrix(2.8347877,0,0,2.8347877,-89.837271,-183.28893)"
     style="fill:#ffd056" /><polygon
     stroke-miterlimit="10"
     points="182.439,92.053 157.057,92.053 169.748,114.034 "
     id="polygon48"
     transform="matrix(2.8347877,0,0,2.8347877,-89.837271,-183.28893)"
     style="fill:none;stroke:#ffd056;stroke-miterlimit:10" /><polygon
     points="184.354,120.823 172.885,120.823 184.354,140.688 "
     id="polygon50"
     transform="matrix(2.8347877,0,0,2.8347877,-89.837271,-183.28893)"
     style="fill:#fff6bf" /><polygon
     stroke-miterlimit="10"
     points="184.354,120.823 172.885,120.823 184.354,140.688 "
     id="polygon52"
     transform="matrix(2.8347877,0,0,2.8347877,-89.837271,-183.28893)"
     style="fill:none;stroke:#fff6bf;stroke-miterlimit:10" /><polygon
     points="57.939,147.502 32.557,147.502 45.248,169.485 "
     id="polygon54"
     transform="matrix(2.8347877,0,0,2.8347877,-89.837271,-183.28893)"
     style="fill:#ffd056" /><polygon
     stroke-miterlimit="10"
     points="57.939,147.502 32.557,147.502 45.248,169.485 "
     id="polygon56"
     transform="matrix(2.8347877,0,0,2.8347877,-89.837271,-183.28893)"
     style="fill:none;stroke:#ffd056;stroke-miterlimit:10" /><polygon
     points="117.316,92.059 91.936,92.059 104.627,114.04 "
     id="polygon58"
     transform="matrix(2.8347877,0,0,2.8347877,-89.837271,-183.28893)"
     style="fill:#ffd056" /><polygon
     stroke-miterlimit="10"
     points="117.316,92.059 91.936,92.059 104.627,114.04 "
     id="polygon60"
     transform="matrix(2.8347877,0,0,2.8347877,-89.837271,-183.28893)"
     style="fill:none;stroke:#ffd056;stroke-miterlimit:10" /><path
     d="m 303.78433,208.9493 c 9.11951,0 9.13652,-14.17394 0,-14.17394 -9.11951,0 -9.13652,14.17394 0,14.17394"
     id="path62"
     inkscape:connector-curvature="0"
     style="fill:#e73e25;stroke-width:2.83478761" /></svg>