<?xml version="1.0" encoding="UTF-8" standalone="no"?>
<!-- Generator: Adobe Illustrator 16.0.0, SVG Export Plug-In . SVG Version: 6.00 Build 0)  -->

<svg
   xmlns:dc="http://purl.org/dc/elements/1.1/"
   xmlns:cc="http://creativecommons.org/ns#"
   xmlns:rdf="http://www.w3.org/1999/02/22-rdf-syntax-ns#"
   xmlns:svg="http://www.w3.org/2000/svg"
   xmlns="http://www.w3.org/2000/svg"
   xmlns:sodipodi="http://sodipodi.sourceforge.net/DTD/sodipodi-0.dtd"
   xmlns:inkscape="http://www.inkscape.org/namespaces/inkscape"
   version="1.1"
   id="Layer_1"
   x="0px"
   y="0px"
   width="378.84946"
   height="250"
   viewBox="0 0 378.84946 250"
   enable-background="new 0 0 612 792"
   xml:space="preserve"
   sodipodi:docname="left_zigzag.svg"
   inkscape:version="0.92.2 (unknown)"><metadata
     id="metadata109"><rdf:RDF><cc:Work
         rdf:about=""><dc:format>image/svg+xml</dc:format><dc:type
           rdf:resource="http://purl.org/dc/dcmitype/StillImage" /></cc:Work></rdf:RDF></metadata><defs
     id="defs107" /><sodipodi:namedview
     pagecolor="#ffffff"
     bordercolor="#666666"
     borderopacity="1"
     objecttolerance="10"
     gridtolerance="10"
     guidetolerance="10"
     inkscape:pageopacity="0"
     inkscape:pageshadow="2"
     inkscape:window-width="1863"
     inkscape:window-height="1056"
     id="namedview105"
     showgrid="false"
     inkscape:zoom="0.2979798"
     inkscape:cx="262.33159"
     inkscape:cy="-237.664"
     inkscape:window-x="57"
     inkscape:window-y="24"
     inkscape:window-maximized="1"
     inkscape:current-layer="Layer_1" /><path
     d="m 601.53559,2002.547 v -3.672 H -46.404415 v 35.051 H 601.59459 v -30.59 c -0.035,-0.252 -0.059,-0.514 -0.059,-0.789"
     id="path2"
     inkscape:connector-curvature="0" /><path
     d="m 247.19674,16.131133 c -9.84171,12.101364 -19.681,24.195493 -29.52029,36.292034 3.15436,0.40997 6.31113,0.815117 9.46791,1.225088 -10.15521,-13.155229 -20.9302,-25.683445 -32.55407,-37.567766 -5.43573,-5.558717 -13.95829,2.97108 -8.52739,8.529798 10.89316,11.129493 21.15207,22.787124 30.67062,35.122412 2.11014,2.732333 6.73798,4.5772 9.4679,1.215442 9.84171,-12.096541 19.681,-24.195493 29.5227,-36.292034 4.85453,-5.966276 -3.62703,-14.549129 -8.52738,-8.524974"
     id="path4"
     inkscape:connector-curvature="0"
     style="fill:#e73e25;stroke-width:2.41159105" /><path
     d="m 182.70356,14.305558 c -9.84171,12.101364 -19.681,24.195493 -29.52029,36.296857 3.15436,0.405148 6.31113,0.810295 9.46791,1.220266 -10.15521,-13.15523 -20.9302,-25.678622 -32.55407,-37.567766 -5.43573,-5.558718 -13.95829,2.97108 -8.52739,8.524974 10.89316,11.134316 21.15207,22.796771 30.67062,35.127236 2.11014,2.732332 6.73798,4.5772 9.4679,1.220265 9.84171,-12.101364 19.681,-24.195493 29.5227,-36.292034 4.85453,-5.973511 -3.62703,-14.553952 -8.52738,-8.529798"
     id="path6"
     inkscape:connector-curvature="0"
     style="fill:#e73e25;stroke-width:2.41159105" /><path
     d="m 121.62037,12.576447 c -9.84171,12.096541 -19.681,24.195494 -29.520295,36.292034 3.15436,0.409971 6.31113,0.815118 9.467915,1.220266 C 91.412775,36.933517 80.637785,24.410125 69.013915,12.525804 c -5.43573,-5.558717 -13.958291,2.97108 -8.52739,8.524974 10.89075,11.134316 21.15207,22.791948 30.67062,35.127236 2.11014,2.732333 6.73798,4.572377 9.467905,1.215442 9.84171,-12.096541 19.681,-24.195493 29.52029,-36.292034 4.85453,-5.973511 -3.62703,-14.549129 -8.52497,-8.524975"
     id="path8"
     inkscape:connector-curvature="0"
     style="fill:#e73e25;stroke-width:2.41159105" /><path
     d="m 179.93505,198.30513 c -9.83929,12.10137 -19.681,24.20032 -29.52029,36.29686 3.15678,0.40515 6.31114,0.8103 9.47032,1.22027 -10.15521,-13.15523 -20.93261,-25.67863 -32.55407,-37.56777 -5.43572,-5.55389 -13.9607,2.97108 -8.52738,8.5298 10.89074,11.12949 21.14965,22.79195 30.6682,35.12241 2.11255,2.73716 6.73799,4.5772 9.46791,1.22027 9.8417,-12.10137 19.6834,-24.1955 29.5227,-36.29204 4.85453,-5.9711 -3.62704,-14.55395 -8.52739,-8.5298"
     id="path10"
     inkscape:connector-curvature="0"
     style="fill:#e73e25;stroke-width:2.41159105" /><path
     d="m 113.37755,196.42168 c -9.84171,12.10137 -19.681005,24.19549 -29.520295,36.29204 3.15436,0.40997 6.31113,0.81511 9.46791,1.22508 -10.15521,-13.15523 -20.9302,-25.68344 -32.55407,-37.56776 -5.435727,-5.55872 -13.95829,2.97108 -8.527386,8.52497 10.893156,11.13432 21.152066,22.79195 30.670616,35.12724 2.11014,2.73233 6.73798,4.5772 9.46791,1.21544 9.841705,-12.09654 19.680995,-24.19549 29.522695,-36.29203 4.85212,-5.96628 -3.62703,-14.54913 -8.52738,-8.52498"
     id="path12"
     inkscape:connector-curvature="0"
     style="fill:#e73e25;stroke-width:2.41159105" /><path
     d="m 48.884362,194.5937 c -9.841703,12.10136 -19.680995,24.19549 -29.520286,36.29685 3.154361,0.40515 6.311134,0.8103 9.467906,1.22027 -6.012096,-7.80873 -12.221943,-15.42213 -18.730827,-22.82089 -5.1318656,-5.84087 -13.6327246,2.71304 -8.5249746,8.52498 5.826404,6.62222 11.4598806,13.39156 16.8449636,20.38035 2.10773,2.73716 6.740397,4.57238 9.467906,1.22027 9.841703,-12.10137 19.680995,-24.1955 29.522695,-36.29204 4.85454,-5.9711 -3.62703,-14.55395 -8.527383,-8.52979"
     id="path14"
     inkscape:connector-curvature="0"
     style="fill:#e73e25;stroke-width:2.41159105" /><path
     d="m 237.28027,138.83047 c -9.8417,12.10137 -19.68099,24.1955 -29.52028,36.29204 3.15677,0.40997 6.31113,0.81512 9.4679,1.22509 -10.15279,-13.15523 -20.9302,-25.68345 -32.55406,-37.56777 -5.43332,-5.55872 -13.95829,2.97108 -8.52498,8.52498 10.89075,11.13431 21.14965,22.79194 30.6682,35.12723 2.11256,2.73233 6.73799,4.5772 9.46791,1.21544 9.8417,-12.09654 19.681,-24.19549 29.5227,-36.29203 4.85453,-5.96628 -3.62703,-14.54913 -8.52739,-8.52498"
     id="path16"
     inkscape:connector-curvature="0"
     style="fill:#e73e25;stroke-width:2.41159105" /><path
     d="m 170.72277,136.94702 c -9.8417,12.09654 -19.68099,24.19549 -29.52029,36.29204 3.15437,0.40514 6.31114,0.81511 9.46791,1.22026 -10.15521,-13.15523 -20.9302,-25.67862 -32.55407,-37.56294 -5.43572,-5.55872 -13.95829,2.97108 -8.52738,8.52497 10.89074,11.13432 21.15206,22.79195 30.67061,35.12724 2.11015,2.73233 6.73799,4.57237 9.46791,1.21544 9.8417,-12.09654 19.68099,-24.19549 29.52029,-36.29203 4.85694,-5.9711 -3.62463,-14.55396 -8.52498,-8.52498"
     id="path18"
     inkscape:connector-curvature="0"
     style="fill:#e73e25;stroke-width:2.41159105" /><path
     d="m 106.22959,135.11904 c -9.841705,12.09654 -19.680995,24.19549 -29.520295,36.29203 3.15437,0.40997 6.31114,0.81512 9.46791,1.22026 -10.15521,-13.15522 -20.9302,-25.67862 -32.554066,-37.56294 -5.435727,-5.55872 -13.958289,2.97108 -8.527386,8.52498 10.890745,11.13431 21.149652,22.79194 30.670612,35.12723 2.11015,2.73233 6.73799,4.57238 9.46791,1.21544 9.8417,-12.09654 19.680995,-24.19549 29.520295,-36.29203 4.85694,-5.9711 -3.62463,-14.54913 -8.52498,-8.52497"
     id="path20"
     inkscape:connector-curvature="0"
     style="fill:#e73e25;stroke-width:2.41159105" /><path
     d="m 45.143984,133.3851 c -9.839291,12.10137 -19.680994,24.19549 -29.520286,36.29686 3.156773,0.40515 6.311134,0.81512 9.470318,1.22026 -4.741188,-6.16643 -9.598132,-12.21712 -14.640769,-18.13757 -5.0378136,-5.91564 -13.5338486,2.64792 -8.5249746,8.5298 4.374627,5.13427 8.6407306,10.34813 12.7524936,15.69463 2.107731,2.73716 6.742809,4.57238 9.467907,1.22026 9.841703,-12.09654 19.683406,-24.19549 29.522697,-36.29203 4.854535,-5.97351 -3.627033,-14.55636 -8.527386,-8.53221"
     id="path22"
     inkscape:connector-curvature="0"
     style="fill:#e73e25;stroke-width:2.41159105" /><path
     d="m 176.66975,76.010939 c -9.83929,12.101364 -19.68099,24.195491 -29.52028,36.296861 3.15677,0.40514 6.31113,0.81029 9.47032,1.22026 -10.15521,-13.15523 -20.93261,-25.678621 -32.55407,-37.567764 -5.43573,-5.558718 -13.9607,2.97108 -8.52739,8.524974 10.89075,11.134316 21.14966,22.79677 30.66821,35.12724 2.11255,2.73715 6.73798,4.57719 9.4679,1.22026 9.84171,-12.10136 19.681,-24.195493 29.5227,-36.292033 4.85453,-5.9711 -3.62703,-14.553953 -8.52739,-8.529798"
     id="path24"
     inkscape:connector-curvature="0"
     style="fill:#e73e25;stroke-width:2.41159105" /><path
     d="m 113.2425,74.216715 c -9.84171,12.096541 -19.681005,24.195493 -29.520295,36.292035 3.15436,0.40997 6.31114,0.81512 9.46791,1.22026 -10.15521,-13.155225 -20.9302,-25.678617 -32.55407,-37.562938 -5.435726,-5.558718 -13.958289,2.97108 -8.527386,8.524974 10.893156,11.134316 21.152066,22.791944 30.670616,35.127234 2.11014,2.73233 6.73799,4.57238 9.46791,1.21544 9.841705,-12.09654 19.680995,-24.19549 29.522695,-36.29203 4.85454,-5.9711 -3.62703,-14.549129 -8.52738,-8.524975"
     id="path26"
     inkscape:connector-curvature="0"
     style="fill:#e73e25;stroke-width:2.41159105" /><path
     d="m 52.156891,72.485193 c -9.841703,12.101364 -19.680994,24.195493 -29.520286,36.296857 3.154361,0.40515 6.311134,0.81512 9.467907,1.22026 -6.964675,-9.03864 -14.204272,-17.814418 -21.849016,-26.291161 -5.2090356,-5.77576 -13.7147176,2.778153 -8.5273856,8.529798 6.952617,7.70021 13.6303126,15.624693 19.9655626,23.848223 2.10773,2.73716 6.740397,4.57238 9.467906,1.22027 9.841704,-12.10137 19.680995,-24.195497 29.522696,-36.296861 4.85454,-5.9711 -3.62462,-14.551541 -8.527384,-8.527386"
     id="path28"
     inkscape:connector-curvature="0"
     style="fill:#e73e25;stroke-width:2.41159105" /><path
     d="m 368.87115,139.38755 c -9.8417,12.10137 -19.68099,24.1955 -29.52028,36.29686 3.15436,0.40515 6.31113,0.81029 9.4679,1.22026 -10.15521,-13.15523 -20.9302,-25.67862 -32.55407,-37.56776 -5.43572,-5.55872 -13.95829,2.97108 -8.52738,8.52497 10.89315,11.13432 21.15206,22.79677 30.67061,35.12724 2.11015,2.73715 6.73799,4.5772 9.46791,1.22026 9.8417,-12.10136 19.68099,-24.19549 29.5227,-36.29203 4.85453,-5.97351 -3.62462,-14.55395 -8.52739,-8.5298"
     id="path30"
     inkscape:connector-curvature="0"
     style="fill:#e73e25;stroke-width:2.41159105" /><path
     d="m 304.38038,137.55957 c -9.8417,12.10136 -19.68099,24.20031 -29.52028,36.29685 3.15436,0.40515 6.31113,0.8103 9.4679,1.22027 -10.15521,-13.15523 -20.9302,-25.67862 -32.55406,-37.56777 -5.43573,-5.55389 -13.95829,2.97108 -8.52739,8.5298 10.89316,11.12949 21.15206,22.79195 30.67061,35.12241 2.11015,2.73716 6.73799,4.5772 9.46791,1.22027 9.8417,-12.10137 19.681,-24.1955 29.5227,-36.29204 4.85453,-5.97351 -3.62703,-14.55395 -8.52739,-8.52979"
     id="path32"
     inkscape:connector-curvature="0"
     style="fill:#e73e25;stroke-width:2.41159105" /><polygon
     points="593.894,1848.41 581.202,1826.43 568.513,1848.41 "
     id="polygon34"
     style="fill:#ffd056"
     transform="translate(-43.668415,91.664)" /><polygon
     stroke-miterlimit="10"
     points="593.894,1848.41 581.202,1826.43 568.513,1848.41 "
     id="polygon36"
     style="fill:none;stroke:#ffd056;stroke-miterlimit:10"
     transform="translate(-43.668415,91.664)" /><polygon
     points="582.589,1874.135 595.278,1852.152 569.897,1852.152 "
     id="polygon38"
     style="fill:#ffe189"
     transform="translate(-43.668415,91.664)" /><polygon
     stroke-miterlimit="10"
     points="582.589,1874.135 595.278,1852.152 569.897,1852.152 "
     id="polygon40"
     style="fill:none;stroke:#ffe189;stroke-miterlimit:10"
     transform="translate(-43.668415,91.664)" /><polygon
     points="579.519,1875.398 566.829,1853.418 554.138,1875.398 "
     id="polygon42"
     style="fill:#ffe189"
     transform="translate(-43.668415,91.664)" /><polygon
     stroke-miterlimit="10"
     points="579.519,1875.398 566.829,1853.418 554.138,1875.398 "
     id="polygon44"
     style="fill:none;stroke:#ffe189;stroke-miterlimit:10"
     transform="translate(-43.668415,91.664)" /><polygon
     points="545.851,1876.693 533.159,1854.711 520.47,1876.693 "
     id="polygon46"
     style="fill:#ffd056"
     transform="translate(-43.668415,91.664)" /><polygon
     stroke-miterlimit="10"
     points="545.851,1876.693 533.159,1854.711 520.47,1876.693 "
     id="polygon48"
     style="fill:none;stroke:#ffd056;stroke-miterlimit:10"
     transform="translate(-43.668415,91.664)" /><polygon
     points="596.46,1903.855 583.771,1881.873 571.079,1903.855 "
     id="polygon50"
     style="fill:#ffe189"
     transform="translate(-43.668415,91.664)" /><polygon
     stroke-miterlimit="10"
     points="596.46,1903.855 583.771,1881.873 571.079,1903.855 "
     id="polygon52"
     style="fill:none;stroke:#ffe189;stroke-miterlimit:10"
     transform="translate(-43.668415,91.664)" /><polygon
     points="566.829,1902.227 579.519,1880.246 554.138,1880.246 "
     id="polygon54"
     style="fill:#ffe189"
     transform="translate(-43.668415,91.664)" /><polygon
     stroke-miterlimit="10"
     points="566.829,1902.227 579.519,1880.246 554.138,1880.246 "
     id="polygon56"
     style="fill:none;stroke:#ffe189;stroke-miterlimit:10"
     transform="translate(-43.668415,91.664)" /><polygon
     points="610.841,1822.008 598.151,1800.027 585.46,1822.008 "
     id="polygon58"
     style="fill:#ffd056"
     transform="translate(-43.668415,91.664)" /><polygon
     stroke-miterlimit="10"
     points="610.841,1822.008 598.151,1800.027 585.46,1822.008 "
     id="polygon60"
     style="fill:none;stroke:#ffd056;stroke-miterlimit:10"
     transform="translate(-43.668415,91.664)" /><polygon
     points="599.536,1847.732 612.226,1825.752 586.845,1825.752 "
     id="polygon62"
     style="fill:#ffd056"
     transform="translate(-43.668415,91.664)" /><polygon
     stroke-miterlimit="10"
     points="599.536,1847.732 612.226,1825.752 586.845,1825.752 "
     id="polygon64"
     style="fill:none;stroke:#ffd056;stroke-miterlimit:10"
     transform="translate(-43.668415,91.664)" /><polygon
     points="626.7,1851.729 614.009,1829.746 601.317,1851.729 "
     id="polygon66"
     style="fill:#ffe189"
     transform="translate(-43.668415,91.664)" /><polygon
     stroke-miterlimit="10"
     points="626.7,1851.729 614.009,1829.746 601.317,1851.729 "
     id="polygon68"
     style="fill:none;stroke:#ffe189;stroke-miterlimit:10"
     transform="translate(-43.668415,91.664)" /><polygon
     points="614.009,1877.088 626.7,1855.107 601.317,1855.107 "
     id="polygon70"
     style="fill:#ffe189"
     transform="translate(-43.668415,91.664)" /><polygon
     stroke-miterlimit="10"
     points="614.009,1877.088 626.7,1855.107 601.317,1855.107 "
     id="polygon72"
     style="fill:none;stroke:#ffe189;stroke-miterlimit:10"
     transform="translate(-43.668415,91.664)" /><polygon
     points="599.438,1902.781 612.13,1880.801 586.749,1880.801 "
     id="polygon74"
     style="fill:#fff6bf"
     transform="translate(-43.668415,91.664)" /><polygon
     stroke-miterlimit="10"
     points="599.438,1902.781 612.13,1880.801 586.749,1880.801 "
     id="polygon76"
     style="fill:none;stroke:#fff6bf;stroke-miterlimit:10"
     transform="translate(-43.668415,91.664)" /><polygon
     points="629.657,1848.404 642.349,1826.424 616.966,1826.424 "
     id="polygon78"
     style="fill:#ffd056"
     transform="translate(-43.668415,91.664)" /><polygon
     stroke-miterlimit="10"
     points="629.657,1848.404 642.349,1826.424 616.966,1826.424 "
     id="polygon80"
     style="fill:none;stroke:#ffd056;stroke-miterlimit:10"
     transform="translate(-43.668415,91.664)" /><polygon
     points="644.263,1875.059 644.263,1855.193 632.794,1855.193 "
     id="polygon82"
     style="fill:#fff6bf"
     transform="translate(-43.668415,91.664)" /><polygon
     stroke-miterlimit="10"
     points="644.263,1875.059 644.263,1855.193 632.794,1855.193 "
     id="polygon84"
     style="fill:none;stroke:#fff6bf;stroke-miterlimit:10"
     transform="translate(-43.668415,91.664)" /><polygon
     points="505.157,1903.855 517.849,1881.873 492.466,1881.873 "
     id="polygon86"
     style="fill:#ffd056"
     transform="translate(-43.668415,91.664)" /><polygon
     stroke-miterlimit="10"
     points="505.157,1903.855 517.849,1881.873 492.466,1881.873 "
     id="polygon88"
     style="fill:none;stroke:#ffd056;stroke-miterlimit:10"
     transform="translate(-43.668415,91.664)" /><polygon
     points="564.536,1848.41 577.226,1826.43 551.845,1826.43 "
     id="polygon90"
     style="fill:#ffd056"
     transform="translate(-43.668415,91.664)" /><polygon
     stroke-miterlimit="10"
     points="564.536,1848.41 577.226,1826.43 551.845,1826.43 "
     id="polygon92"
     style="fill:none;stroke:#ffd056;stroke-miterlimit:10"
     transform="translate(-43.668415,91.664)" /><path
     d="m 278.13263,49.03247 c 7.75808,0 7.77255,-12.057956 0,-12.057956 -7.75568,0 -7.77256,12.057956 0,12.057956"
     id="path94"
     inkscape:connector-curvature="0"
     style="fill:#e73e25;stroke-width:2.41159105" /><path
     d="m 204.17877,229.10115 c 7.75809,0 7.77256,-12.05795 0,-12.05795 -7.75808,0 -7.77255,12.05795 0,12.05795"
     id="path96"
     inkscape:connector-curvature="0"
     style="fill:#e73e25;stroke-width:2.41159105" /><path
     d="m 96.460235,12.057955 c 7.758085,0 7.772555,-12.057955 0,-12.057955 -7.75568,0 -7.77256,12.057955 0,12.057955"
     id="path98"
     inkscape:connector-curvature="0"
     style="fill:#e73e25;stroke-width:2.41159105" /><path
     d="m 51.44306,250 c 7.758085,0 7.772555,-12.05796 0,-12.05796 -7.755677,0 -7.772558,12.05796 0,12.05796"
     id="path100"
     inkscape:connector-curvature="0"
     style="fill:#e73e25;stroke-width:2.41159105" /><path
     d="m 555.09459,1964.4 c 3.217,0 3.223,-5 0,-5 -3.217,0 -3.223,5 0,5"
     id="path102"
     inkscape:connector-curvature="0"
     style="fill:#e73e25" /></svg>