<?xml version="1.0" encoding="UTF-8" standalone="no"?>
<!-- Generator: Adobe Illustrator 16.0.0, SVG Export Plug-In . SVG Version: 6.00 Build 0)  -->

<svg
   xmlns:dc="http://purl.org/dc/elements/1.1/"
   xmlns:cc="http://creativecommons.org/ns#"
   xmlns:rdf="http://www.w3.org/1999/02/22-rdf-syntax-ns#"
   xmlns:svg="http://www.w3.org/2000/svg"
   xmlns="http://www.w3.org/2000/svg"
   xmlns:sodipodi="http://sodipodi.sourceforge.net/DTD/sodipodi-0.dtd"
   xmlns:inkscape="http://www.inkscape.org/namespaces/inkscape"
   version="1.1"
   id="Layer_1"
   x="0px"
   y="0px"
   width="457.0473"
   height="250"
   viewBox="0 0 457.0473 250"
   enable-background="new 0 0 612 792"
   xml:space="preserve"
   sodipodi:docname="right_zigzag.svg"
   inkscape:version="0.92.2 (unknown)"><metadata
     id="metadata131"><rdf:RDF><cc:Work
         rdf:about=""><dc:format>image/svg+xml</dc:format><dc:type
           rdf:resource="http://purl.org/dc/dcmitype/StillImage" /></cc:Work></rdf:RDF></metadata><defs
     id="defs129" /><sodipodi:namedview
     pagecolor="#ffffff"
     bordercolor="#666666"
     borderopacity="1"
     objecttolerance="10"
     gridtolerance="10"
     guidetolerance="10"
     inkscape:pageopacity="0"
     inkscape:pageshadow="2"
     inkscape:window-width="1863"
     inkscape:window-height="1056"
     id="namedview127"
     showgrid="false"
     inkscape:zoom="0.2979798"
     inkscape:cx="262.39179"
     inkscape:cy="-200.826"
     inkscape:window-x="57"
     inkscape:window-y="24"
     inkscape:window-maximized="1"
     inkscape:current-layer="Layer_1" /><path
     d="m 601.59579,1965.709 v -3.672 H -46.344213 v 35.051 H 601.65479 v -30.59 c -0.035,-0.252 -0.059,-0.514 -0.059,-0.789"
     id="path2"
     inkscape:connector-curvature="0" /><path
     d="M 9.7709224,55.469048 C 19.187589,43.285714 28.604255,31.107143 38.01616,18.92619 h -8.416667 c 10.021429,12.338096 20.692857,24.014286 32.092854,35.1 5.49286,5.342858 13.91905,-3.069047 8.41667,-8.421428 -11.39286,-11.085714 -22.066667,-22.759524 -32.092857,-35.1 -1.854762,-2.283333 -6.590476,-2.361905 -8.416667,0 -9.416666,12.183333 -18.828571,24.366667 -28.2452376,36.547619 -4.633333,5.988095 3.733334,14.471429 8.416667,8.416667"
     id="path4"
     inkscape:connector-curvature="0"
     style="fill:#e73e25;stroke-width:2.38095236" /><path
     d="M 70.104257,55.683333 C 79.520917,43.5 88.932827,31.321429 98.349497,19.135714 h -8.41667 c 10.02143,12.338096 20.697623,24.014286 32.092863,35.1 5.49285,5.347619 13.91904,-3.064285 8.41666,-8.416666 -11.39285,-11.085715 -22.07143,-22.764286 -32.092853,-35.1 -1.85477,-2.283334 -6.59048,-2.361905 -8.41667,0 -9.41667,12.183333 -18.83333,24.361904 -28.24524,36.542857 -4.62857,5.988095 3.73333,14.47619 8.41667,8.421428"
     id="path6"
     inkscape:connector-curvature="0"
     style="fill:#e73e25;stroke-width:2.38095236" /><path
     d="m 135.83997,55.914286 c 9.41667,-12.183334 18.83334,-24.361905 28.25,-36.547619 h -8.41666 c 10.02142,12.342857 20.69285,24.014285 32.08809,35.1 5.49762,5.342857 13.92381,-3.064286 8.41667,-8.421429 C 184.78521,34.964286 174.1114,23.285714 164.08997,10.95 c -1.85476,-2.283333 -6.59047,-2.361905 -8.41666,0 -9.41667,12.178571 -18.83334,24.361905 -28.25,36.547619 -4.62619,5.985714 3.73809,14.471429 8.41666,8.416667"
     id="path8"
     inkscape:connector-curvature="0"
     style="fill:#e73e25;stroke-width:2.38095236" /><path
     d="m 193.52331,56.114286 c 9.41666,-12.178572 18.82857,-24.357143 28.24523,-36.542857 h -8.41666 c 10.02143,12.338095 20.69285,24.014285 32.09285,35.1 5.49286,5.342857 13.91905,-3.064286 8.41667,-8.421429 -11.39286,-11.080952 -22.07143,-22.759524 -32.09286,-35.095238 -1.85476,-2.288095 -6.59047,-2.366667 -8.41666,0 -9.41667,12.178571 -18.83334,24.361905 -28.24524,36.542857 -4.63333,5.990476 3.73333,14.471429 8.41667,8.416667"
     id="path10"
     inkscape:connector-curvature="0"
     style="fill:#e73e25;stroke-width:2.38095236" /><path
     d="M 253.85664,56.328571 C 263.26854,44.15 272.68521,31.966667 282.10188,19.780952 h -8.41667 c 10.02143,12.342858 20.69286,24.014286 32.09286,35.1 5.49285,5.347619 13.91905,-3.064285 8.41666,-8.416666 -11.39285,-11.085715 -22.07142,-22.759524 -32.09285,-35.095238 -1.85476,-2.288096 -6.59048,-2.366667 -8.41667,0 -9.41667,12.178571 -18.83333,24.357142 -28.25,36.542857 -4.62857,5.985714 3.7381,14.471428 8.42143,8.416666"
     id="path12"
     inkscape:connector-curvature="0"
     style="fill:#e73e25;stroke-width:2.38095236" /><path
     d="M 319.59235,56.561905 C 329.00902,44.378571 338.42569,32.2 347.84235,20.014286 h -8.42143 c 10.0262,12.338095 20.69762,24.014285 32.09286,35.1 5.49762,5.347619 13.92381,-3.064286 8.41667,-8.416667 -11.39286,-11.085714 -22.06667,-22.764286 -32.0881,-35.1 -1.85476,-2.283333 -6.59523,-2.361905 -8.42143,0 -9.4119,12.183333 -18.82857,24.361905 -28.24523,36.542857 -4.62857,5.988095 3.73809,14.476191 8.41666,8.421429"
     id="path14"
     inkscape:connector-curvature="0"
     style="fill:#e73e25;stroke-width:2.38095236" /><path
     d="M 382.23997,56.778571 C 391.65188,44.6 401.06854,32.421429 410.48521,20.235714 h -8.41667 c 10.02143,12.338096 20.69286,24.014286 32.0881,35.1 5.49762,5.342857 13.92381,-3.064285 8.42143,-8.421428 -11.39286,-11.085715 -22.07143,-22.759524 -32.09286,-35.095238 -1.85476,-2.288096 -6.59048,-2.366667 -8.41667,0 -9.41666,12.178571 -18.83333,24.361904 -28.25,36.542857 -4.62619,5.990476 3.74048,14.471428 8.42143,8.416666"
     id="path16"
     inkscape:connector-curvature="0"
     style="fill:#e73e25;stroke-width:2.38095236" /><path
     d="m 442.56854,56.992857 c 4.03572,-5.216666 8.07381,-10.440476 12.10953,-15.661905 1.9619,-2.538095 2.47381,-5.942857 0,-8.416666 -2.05,-2.05 -6.44048,-2.557143 -8.41667,0 -4.04048,5.216666 -8.07381,10.440476 -12.10952,15.661905 -1.96191,2.538095 -2.47381,5.938095 0,8.416666 2.05,2.052381 6.44047,2.559524 8.41666,0"
     id="path18"
     inkscape:connector-curvature="0"
     style="fill:#e73e25;stroke-width:2.38095236" /><path
     d="m 79.818537,116.01429 c 9.41667,-12.17858 18.83334,-24.357147 28.250003,-36.542861 h -8.421423 c 10.026193,12.338095 20.697613,24.014281 32.092853,35.100001 5.49762,5.34286 13.92381,-3.06429 8.41667,-8.42143 -11.39286,-11.080952 -22.06667,-22.759524 -32.0881,-35.095238 -1.85476,-2.288095 -6.59523,-2.366667 -8.421423,0 -9.41191,12.178571 -18.82858,24.361905 -28.24524,36.542858 -4.62857,5.99048 3.73809,14.47143 8.41666,8.41667"
     id="path20"
     inkscape:connector-curvature="0"
     style="fill:#e73e25;stroke-width:2.38095236" /><path
     d="m 140.15188,116.22857 c 9.41666,-12.17857 18.83333,-24.361903 28.25,-36.547618 h -8.42143 c 10.02619,12.342858 20.69762,24.014288 32.09286,35.099998 5.49761,5.34762 13.92381,-3.06428 8.41666,-8.41666 -11.39285,-11.085719 -22.06666,-22.759528 -32.08809,-35.095242 -1.85476,-2.288096 -6.59524,-2.366667 -8.42143,0 -9.41191,12.178571 -18.82857,24.357142 -28.24524,36.542862 -4.62857,5.98571 3.7381,14.47142 8.41667,8.41666"
     id="path22"
     inkscape:connector-curvature="0"
     style="fill:#e73e25;stroke-width:2.38095236" /><path
     d="M 205.89235,116.46191 C 215.30426,104.27857 224.72092,92.1 234.13759,79.914286 h -8.41667 c 10.02143,12.338095 20.69286,24.014284 32.0881,35.100004 5.49762,5.34762 13.92381,-3.06429 8.42143,-8.41667 -11.39286,-11.085715 -22.07143,-22.764287 -32.09286,-35.100001 -1.85476,-2.283333 -6.59047,-2.361905 -8.41667,0 -9.41666,12.183333 -18.83333,24.361905 -28.25,36.542861 -4.62619,5.98809 3.7381,14.47619 8.42143,8.42143"
     id="path24"
     inkscape:connector-curvature="0"
     style="fill:#e73e25;stroke-width:2.38095236" /><path
     d="m 263.57092,116.66667 c 9.41667,-12.18334 18.83334,-24.361908 28.24524,-36.547622 h -8.41666 c 10.02142,12.338095 20.69762,24.014282 32.09285,35.100002 5.49762,5.34286 13.92381,-3.06429 8.41667,-8.42143 -11.39286,-11.080953 -22.06667,-22.759525 -32.09286,-35.095239 -1.85,-2.288095 -6.59047,-2.361905 -8.41666,0 -9.41667,12.178571 -18.82858,24.361905 -28.24524,36.542859 -4.62857,5.98809 3.73333,14.47619 8.41666,8.42143"
     id="path26"
     inkscape:connector-curvature="0"
     style="fill:#e73e25;stroke-width:2.38095236" /><path
     d="m 323.90188,116.87619 c 9.41666,-12.17857 18.83333,-24.361904 28.24524,-36.547619 h -8.41667 c 10.02143,12.342858 20.69762,24.014289 32.09286,35.099999 5.49285,5.34762 13.91904,-3.06428 8.41666,-8.41666 -11.39285,-11.080958 -22.06666,-22.759529 -32.09285,-35.095243 -1.85477,-2.283334 -6.59048,-2.366667 -8.41667,0 -9.41667,12.178571 -18.82857,24.361904 -28.24524,36.542853 -4.62619,5.98334 3.73571,14.47143 8.41667,8.41667"
     id="path28"
     inkscape:connector-curvature="0"
     style="fill:#e73e25;stroke-width:2.38095236" /><path
     d="m 389.63997,117.10714 c 9.41667,-12.18333 18.83334,-24.361902 28.25,-36.547616 h -8.41666 c 10.02142,12.342857 20.69285,24.014286 32.08809,35.099996 5.49762,5.34762 13.92381,-3.06428 8.42143,-8.41666 -11.39762,-11.085717 -22.07143,-22.759527 -32.09286,-35.095241 -1.85476,-2.288095 -6.59047,-2.366667 -8.41666,0 -9.41667,12.178571 -18.83334,24.357143 -28.25,36.542861 -4.62858,5.98571 3.73809,14.47143 8.41666,8.41666"
     id="path30"
     inkscape:connector-curvature="0"
     style="fill:#e73e25;stroke-width:2.38095236" /><path
     d="m 24.675684,176.12381 c 9.416666,-12.18333 18.833333,-24.3619 28.25,-36.54762 h -8.421429 c 10.026191,12.3381 20.697622,24.01429 32.092862,35.1 5.49761,5.34762 13.9238,-3.06429 8.41666,-8.41667 -11.39286,-11.08571 -22.06666,-22.76428 -32.088093,-35.1 -1.854762,-2.28333 -6.595238,-2.3619 -8.421429,0 -9.411905,12.18334 -18.828571,24.36191 -28.245238,36.54286 -4.628571,5.99048 3.738095,14.47619 8.416667,8.42143"
     id="path32"
     inkscape:connector-curvature="0"
     style="fill:#e73e25;stroke-width:2.38095236" /><path
     d="m 87.985207,177.43571 c 9.41667,-12.17857 18.833333,-24.35714 28.245243,-36.54285 h -8.41667 c 10.02143,12.33809 20.69286,24.01428 32.09286,35.1 5.49762,5.34285 13.92381,-3.06429 8.41667,-8.42143 -11.39286,-11.08095 -22.06667,-22.75952 -32.09286,-35.09524 -1.85,-2.28809 -6.59048,-2.36667 -8.41667,0 -9.416663,12.17857 -18.828573,24.36191 -28.245243,36.54286 -4.63095,5.99047 3.73572,14.47143 8.41667,8.41666"
     id="path34"
     inkscape:connector-curvature="0"
     style="fill:#e73e25;stroke-width:2.38095236" /><path
     d="m 150.74473,176.56667 c 9.41667,-12.17857 18.83334,-24.36191 28.25,-36.54762 h -8.41666 c 10.02143,12.34286 20.69285,24.01428 32.08809,35.1 5.49762,5.34762 13.92381,-3.06429 8.42143,-8.41667 -11.39762,-11.08095 -22.07143,-22.75952 -32.09286,-35.09524 -1.85476,-2.28333 -6.59047,-2.36666 -8.41666,0 -9.41667,12.17857 -18.83334,24.36191 -28.25,36.54286 -4.62857,5.98571 3.73809,14.47143 8.41666,8.41667"
     id="path36"
     inkscape:connector-curvature="0"
     style="fill:#e73e25;stroke-width:2.38095236" /><path
     d="m 208.42569,176.77143 c 9.41666,-12.18333 18.83333,-24.36191 28.24523,-36.54762 h -8.41666 c 10.02143,12.3381 20.69762,24.01429 32.09286,35.1 5.49285,5.34762 13.9238,-3.06429 8.41666,-8.41667 -11.39286,-11.08571 -22.06666,-22.76428 -32.09286,-35.1 -1.85476,-2.28333 -6.59047,-2.3619 -8.41666,0 -9.41667,12.18334 -18.82857,24.36191 -28.24524,36.54286 -4.62619,5.9881 3.73571,14.47619 8.41667,8.42143"
     id="path38"
     inkscape:connector-curvature="0"
     style="fill:#e73e25;stroke-width:2.38095236" /><path
     d="m 268.75902,176.98571 c 9.41667,-12.18333 18.82857,-24.3619 28.24524,-36.54761 h -8.41667 c 10.02143,12.33809 20.69286,24.01428 32.09286,35.1 5.49286,5.34285 13.91905,-3.06429 8.41667,-8.42143 -11.39286,-11.08096 -22.06667,-22.75953 -32.09286,-35.09524 -1.85476,-2.2881 -6.59048,-2.36191 -8.41667,0 -9.41667,12.17857 -18.83333,24.3619 -28.24524,36.54286 -4.63095,5.98809 3.73572,14.47619 8.41667,8.42142"
     id="path40"
     inkscape:connector-curvature="0"
     style="fill:#e73e25;stroke-width:2.38095236" /><path
     d="m 334.49712,177.21429 c 9.41666,-12.17858 18.83333,-24.35715 28.25,-36.54286 h -8.41667 c 10.02143,12.33809 20.69286,24.01428 32.08809,35.1 5.49762,5.34286 13.92381,-3.06429 8.41667,-8.42143 -11.39286,-11.08095 -22.06667,-22.75952 -32.08809,-35.09524 -1.85477,-2.28809 -6.59048,-2.36667 -8.41667,0 -9.41667,12.17857 -18.83333,24.36191 -28.25,36.54286 -4.62857,5.98809 3.73809,14.46905 8.41667,8.41667"
     id="path42"
     inkscape:connector-curvature="0"
     style="fill:#e73e25;stroke-width:2.38095236" /><path
     d="m 397.14473,177.43571 c 9.41667,-12.18333 18.82858,-24.3619 28.24524,-36.54761 h -8.41666 c 9.37142,11.54761 19.30714,22.5119 29.88809,32.9619 5.45476,5.39048 13.87619,-3.01905 8.41667,-8.41667 -10.57381,-10.45 -20.51667,-21.41904 -29.8881,-32.9619 -1.85476,-2.28333 -6.59047,-2.36191 -8.41666,0 -9.41667,12.18333 -18.83334,24.3619 -28.24524,36.54286 -4.63095,5.99047 3.73333,14.47619 8.41666,8.42142"
     id="path44"
     inkscape:connector-curvature="0"
     style="fill:#e73e25;stroke-width:2.38095236" /><path
     d="m 209.01378,237.07143 c 9.41667,-12.17857 18.83334,-24.35714 28.25,-36.54286 h -8.41666 c 10.02142,12.3381 20.69285,24.01429 32.08809,35.1 5.49762,5.34286 13.92381,-3.06428 8.42143,-8.42143 -11.39762,-11.08095 -22.07143,-22.75952 -32.09286,-35.09524 -1.85476,-2.28333 -6.59047,-2.36666 -8.41666,0 -9.41667,12.17858 -18.83334,24.36191 -28.25,36.54286 -4.62858,5.99048 3.73809,14.47143 8.41666,8.41667"
     id="path46"
     inkscape:connector-curvature="0"
     style="fill:#e73e25;stroke-width:2.38095236" /><path
     d="m 269.34473,237.28571 c 9.41667,-12.17857 18.83334,-24.3619 28.25,-36.54761 h -8.41666 c 10.02143,12.34285 20.69285,24.01428 32.08809,35.1 5.49762,5.34761 13.92381,-3.06429 8.41667,-8.41667 -11.39286,-11.08095 -22.06667,-22.75953 -32.0881,-35.09524 -1.85476,-2.28809 -6.59047,-2.36667 -8.41666,0 -9.41667,12.17857 -18.83334,24.35714 -28.25,36.54286 -4.62619,5.98333 3.74047,14.47143 8.41666,8.41666"
     id="path48"
     inkscape:connector-curvature="0"
     style="fill:#e73e25;stroke-width:2.38095236" /><path
     d="m 335.08759,237.51905 c 9.41667,-12.18334 18.82857,-24.36191 28.24524,-36.54762 h -8.41667 c 10.02143,12.33809 20.69286,24.01428 32.09286,35.1 5.49286,5.34762 13.91905,-3.06429 8.41667,-8.41667 -11.39286,-11.08571 -22.07143,-22.76428 -32.09286,-35.1 -1.85476,-2.28333 -6.59048,-2.3619 -8.41667,0 -9.41666,12.18334 -18.83333,24.36191 -28.24524,36.54286 -4.63333,5.98809 3.73334,14.47619 8.41667,8.42143"
     id="path50"
     inkscape:connector-curvature="0"
     style="fill:#e73e25;stroke-width:2.38095236" /><path
     d="m 392.76378,237.72381 c 9.41667,-12.18333 18.83334,-24.36191 28.25,-36.54762 h -8.42143 c 10.02619,12.3381 20.69762,24.01429 32.09286,35.1 5.49762,5.34286 13.92381,-3.06429 8.41667,-8.42143 -11.39286,-11.08095 -22.06667,-22.75952 -32.0881,-35.09524 -1.85476,-2.28809 -6.59524,-2.3619 -8.42143,0 -9.4119,12.17858 -18.82857,24.36191 -28.24523,36.54286 -4.6262,5.9881 3.73809,14.47619 8.41666,8.42143"
     id="path52"
     inkscape:connector-curvature="0"
     style="fill:#e73e25;stroke-width:2.38095236" /><polygon
     points="593.894,1848.41 581.202,1826.43 568.513,1848.41 "
     id="polygon54"
     style="fill:#ffd056"
     transform="translate(-43.608213,54.826)" /><polygon
     stroke-miterlimit="10"
     points="593.894,1848.41 581.202,1826.43 568.513,1848.41 "
     id="polygon56"
     style="fill:none;stroke:#ffd056;stroke-miterlimit:10"
     transform="translate(-43.608213,54.826)" /><polygon
     points="582.589,1874.135 595.278,1852.152 569.897,1852.152 "
     id="polygon58"
     style="fill:#ffe189"
     transform="translate(-43.608213,54.826)" /><polygon
     stroke-miterlimit="10"
     points="582.589,1874.135 595.278,1852.152 569.897,1852.152 "
     id="polygon60"
     style="fill:none;stroke:#ffe189;stroke-miterlimit:10"
     transform="translate(-43.608213,54.826)" /><polygon
     points="579.519,1875.398 566.829,1853.418 554.138,1875.398 "
     id="polygon62"
     style="fill:#ffe189"
     transform="translate(-43.608213,54.826)" /><polygon
     stroke-miterlimit="10"
     points="579.519,1875.398 566.829,1853.418 554.138,1875.398 "
     id="polygon64"
     style="fill:none;stroke:#ffe189;stroke-miterlimit:10"
     transform="translate(-43.608213,54.826)" /><polygon
     points="545.851,1876.693 533.159,1854.711 520.47,1876.693 "
     id="polygon66"
     style="fill:#ffd056"
     transform="translate(-43.608213,54.826)" /><polygon
     stroke-miterlimit="10"
     points="545.851,1876.693 533.159,1854.711 520.47,1876.693 "
     id="polygon68"
     style="fill:none;stroke:#ffd056;stroke-miterlimit:10"
     transform="translate(-43.608213,54.826)" /><polygon
     points="596.46,1903.855 583.771,1881.873 571.079,1903.855 "
     id="polygon70"
     style="fill:#ffe189"
     transform="translate(-43.608213,54.826)" /><polygon
     stroke-miterlimit="10"
     points="596.46,1903.855 583.771,1881.873 571.079,1903.855 "
     id="polygon72"
     style="fill:none;stroke:#ffe189;stroke-miterlimit:10"
     transform="translate(-43.608213,54.826)" /><polygon
     points="566.829,1902.227 579.519,1880.246 554.138,1880.246 "
     id="polygon74"
     style="fill:#ffe189"
     transform="translate(-43.608213,54.826)" /><polygon
     stroke-miterlimit="10"
     points="566.829,1902.227 579.519,1880.246 554.138,1880.246 "
     id="polygon76"
     style="fill:none;stroke:#ffe189;stroke-miterlimit:10"
     transform="translate(-43.608213,54.826)" /><polygon
     points="610.841,1822.008 598.151,1800.027 585.46,1822.008 "
     id="polygon78"
     style="fill:#ffd056"
     transform="translate(-43.608213,54.826)" /><polygon
     stroke-miterlimit="10"
     points="610.841,1822.008 598.151,1800.027 585.46,1822.008 "
     id="polygon80"
     style="fill:none;stroke:#ffd056;stroke-miterlimit:10"
     transform="translate(-43.608213,54.826)" /><polygon
     points="599.536,1847.732 612.226,1825.752 586.845,1825.752 "
     id="polygon82"
     style="fill:#ffd056"
     transform="translate(-43.608213,54.826)" /><polygon
     stroke-miterlimit="10"
     points="599.536,1847.732 612.226,1825.752 586.845,1825.752 "
     id="polygon84"
     style="fill:none;stroke:#ffd056;stroke-miterlimit:10"
     transform="translate(-43.608213,54.826)" /><polygon
     points="626.7,1851.729 614.009,1829.746 601.317,1851.729 "
     id="polygon86"
     style="fill:#ffe189"
     transform="translate(-43.608213,54.826)" /><polygon
     stroke-miterlimit="10"
     points="626.7,1851.729 614.009,1829.746 601.317,1851.729 "
     id="polygon88"
     style="fill:none;stroke:#ffe189;stroke-miterlimit:10"
     transform="translate(-43.608213,54.826)" /><polygon
     points="614.009,1877.088 626.7,1855.107 601.317,1855.107 "
     id="polygon90"
     style="fill:#ffe189"
     transform="translate(-43.608213,54.826)" /><polygon
     stroke-miterlimit="10"
     points="614.009,1877.088 626.7,1855.107 601.317,1855.107 "
     id="polygon92"
     style="fill:none;stroke:#ffe189;stroke-miterlimit:10"
     transform="translate(-43.608213,54.826)" /><polygon
     points="599.438,1902.781 612.13,1880.801 586.749,1880.801 "
     id="polygon94"
     style="fill:#fff6bf"
     transform="translate(-43.608213,54.826)" /><polygon
     stroke-miterlimit="10"
     points="599.438,1902.781 612.13,1880.801 586.749,1880.801 "
     id="polygon96"
     style="fill:none;stroke:#fff6bf;stroke-miterlimit:10"
     transform="translate(-43.608213,54.826)" /><polygon
     points="629.657,1848.404 642.349,1826.424 616.966,1826.424 "
     id="polygon98"
     style="fill:#ffd056"
     transform="translate(-43.608213,54.826)" /><polygon
     stroke-miterlimit="10"
     points="629.657,1848.404 642.349,1826.424 616.966,1826.424 "
     id="polygon100"
     style="fill:none;stroke:#ffd056;stroke-miterlimit:10"
     transform="translate(-43.608213,54.826)" /><polygon
     points="644.263,1875.059 644.263,1855.193 632.794,1855.193 "
     id="polygon102"
     style="fill:#fff6bf"
     transform="translate(-43.608213,54.826)" /><polygon
     stroke-miterlimit="10"
     points="644.263,1875.059 644.263,1855.193 632.794,1855.193 "
     id="polygon104"
     style="fill:none;stroke:#fff6bf;stroke-miterlimit:10"
     transform="translate(-43.608213,54.826)" /><polygon
     points="505.157,1903.855 517.849,1881.873 492.466,1881.873 "
     id="polygon106"
     style="fill:#ffd056"
     transform="translate(-43.608213,54.826)" /><polygon
     stroke-miterlimit="10"
     points="505.157,1903.855 517.849,1881.873 492.466,1881.873 "
     id="polygon108"
     style="fill:none;stroke:#ffd056;stroke-miterlimit:10"
     transform="translate(-43.608213,54.826)" /><polygon
     points="564.536,1848.41 577.226,1826.43 551.845,1826.43 "
     id="polygon110"
     style="fill:#ffd056"
     transform="translate(-43.608213,54.826)" /><polygon
     stroke-miterlimit="10"
     points="564.536,1848.41 577.226,1826.43 551.845,1826.43 "
     id="polygon112"
     style="fill:none;stroke:#ffd056;stroke-miterlimit:10"
     transform="translate(-43.608213,54.826)" /><path
     d="m 294.6614,250 c 7.65952,0 7.67381,-11.90476 0,-11.90476 -7.65952,0 -7.67143,11.90476 0,11.90476"
     id="path114"
     inkscape:connector-curvature="0"
     style="fill:#e73e25;stroke-width:2.38095236" /><path
     d="m 361.32807,246.82381 c 7.65952,0 7.67381,-11.90476 0,-11.90476 -7.65953,0 -7.67143,11.90476 0,11.90476"
     id="path116"
     inkscape:connector-curvature="0"
     style="fill:#e73e25;stroke-width:2.38095236" /><path
     d="m 62.913777,92.857143 c 7.65953,0 7.67381,-11.904762 0,-11.904762 -7.659522,0 -7.671427,11.904762 0,11.904762"
     id="path118"
     inkscape:connector-curvature="0"
     style="fill:#e73e25;stroke-width:2.38095236" /><path
     d="m 374.02807,11.904762 c 7.65952,0 7.67381,-11.904762 0,-11.904762 -7.66429,0 -7.67143,11.904762 0,11.904762"
     id="path120"
     inkscape:connector-curvature="0"
     style="fill:#e73e25;stroke-width:2.38095236" /><path
     d="m 7.3613984,202.38095 c 7.6595236,0 7.6738096,-11.90476 0,-11.90476 -7.66428605,0 -7.67142805,11.90476 0,11.90476"
     id="path122"
     inkscape:connector-curvature="0"
     style="fill:#e73e25;stroke-width:2.38095236" /><path
     d="m 555.15479,1927.562 c 3.217,0 3.223,-5 0,-5 -3.217,0 -3.223,5 0,5"
     id="path124"
     inkscape:connector-curvature="0"
     style="fill:#e73e25" /></svg>