<?xml version="1.0" encoding="UTF-8" standalone="no"?>
<!-- Generator: Adobe Illustrator 16.0.0, SVG Export Plug-In . SVG Version: 6.00 Build 0)  -->

<svg
   xmlns:dc="http://purl.org/dc/elements/1.1/"
   xmlns:cc="http://creativecommons.org/ns#"
   xmlns:rdf="http://www.w3.org/1999/02/22-rdf-syntax-ns#"
   xmlns:svg="http://www.w3.org/2000/svg"
   xmlns="http://www.w3.org/2000/svg"
   xmlns:sodipodi="http://sodipodi.sourceforge.net/DTD/sodipodi-0.dtd"
   xmlns:inkscape="http://www.inkscape.org/namespaces/inkscape"
   version="1.1"
   id="Layer_1"
   x="0px"
   y="0px"
   width="231.53746"
   height="350"
   viewBox="0 0 231.53745 350"
   enable-background="new 0 0 612 792"
   xml:space="preserve"
   sodipodi:docname="top_left_triangles.svg"
   inkscape:version="0.92.2 (unknown)"><metadata
     id="metadata251"><rdf:RDF><cc:Work
         rdf:about=""><dc:format>image/svg+xml</dc:format><dc:type
           rdf:resource="http://purl.org/dc/dcmitype/StillImage" /></cc:Work></rdf:RDF></metadata><defs
     id="defs249" /><sodipodi:namedview
     pagecolor="#ffffff"
     bordercolor="#666666"
     borderopacity="1"
     objecttolerance="10"
     gridtolerance="10"
     guidetolerance="10"
     inkscape:pageopacity="0"
     inkscape:pageshadow="2"
     inkscape:window-width="1863"
     inkscape:window-height="1056"
     id="namedview247"
     showgrid="false"
     inkscape:zoom="1"
     inkscape:cx="197.44507"
     inkscape:cy="96.007012"
     inkscape:window-x="57"
     inkscape:window-y="24"
     inkscape:window-maximized="1"
     inkscape:current-layer="Layer_1" /><path
     d="m 588.692,1952.838 v -3.672 h -647.94 v 35.051 h 647.999 v -30.59 c -0.035,-0.252 -0.059,-0.514 -0.059,-0.789"
     id="path2"
     inkscape:connector-curvature="0" /><polygon
     points="85.413,94.101 72.722,72.12 60.031,94.101 "
     id="polygon4"
     style="fill:#ffd056"
     transform="matrix(1.3201668,0,0,1.3201668,-74.605266,-56.6708)" /><polygon
     stroke-miterlimit="10"
     points="85.413,94.101 72.722,72.12 60.031,94.101 "
     id="polygon6"
     style="fill:none;stroke:#ffd056;stroke-miterlimit:10"
     transform="matrix(1.3201668,0,0,1.3201668,-74.605266,-56.6708)" /><polygon
     points="68.928,182.847 57.345,182.847 57.345,202.909 "
     id="polygon8"
     style="fill:#ffd056"
     transform="matrix(1.3201668,0,0,1.3201668,-74.605266,-56.6708)" /><polygon
     stroke-miterlimit="10"
     points="68.928,182.847 57.345,182.847 57.345,202.909 "
     id="polygon10"
     style="fill:none;stroke:#ffd056;stroke-miterlimit:10"
     transform="matrix(1.3201668,0,0,1.3201668,-74.605266,-56.6708)" /><polygon
     points="72.311,119.328 85.001,97.347 59.62,97.347 "
     id="polygon12"
     style="fill:#ffd056"
     transform="matrix(1.3201668,0,0,1.3201668,-74.605266,-56.6708)" /><polygon
     stroke-miterlimit="10"
     points="72.311,119.328 85.001,97.347 59.62,97.347 "
     id="polygon14"
     style="fill:none;stroke:#ffd056;stroke-miterlimit:10"
     transform="matrix(1.3201668,0,0,1.3201668,-74.605266,-56.6708)" /><polygon
     points="114.03,92.328 101.34,70.347 88.649,92.328 "
     id="polygon16"
     style="fill:#ffd056"
     transform="matrix(1.3201668,0,0,1.3201668,-74.605266,-56.6708)" /><polygon
     stroke-miterlimit="10"
     points="114.03,92.328 101.34,70.347 88.649,92.328 "
     id="polygon18"
     style="fill:none;stroke:#ffd056;stroke-miterlimit:10"
     transform="matrix(1.3201668,0,0,1.3201668,-74.605266,-56.6708)" /><polygon
     points="100.109,122.567 87.418,100.586 74.729,122.567 "
     id="polygon20"
     style="fill:#ffd056"
     transform="matrix(1.3201668,0,0,1.3201668,-74.605266,-56.6708)" /><polygon
     stroke-miterlimit="10"
     points="100.109,122.567 87.418,100.586 74.729,122.567 "
     id="polygon22"
     style="fill:none;stroke:#ffd056;stroke-miterlimit:10"
     transform="matrix(1.3201668,0,0,1.3201668,-74.605266,-56.6708)" /><polygon
     points="87.418,147.195 100.109,125.214 74.729,125.214 "
     id="polygon24"
     style="fill:#ffd056"
     transform="matrix(1.3201668,0,0,1.3201668,-74.605266,-56.6708)" /><polygon
     stroke-miterlimit="10"
     points="87.418,147.195 100.109,125.214 74.729,125.214 "
     id="polygon26"
     style="fill:none;stroke:#ffd056;stroke-miterlimit:10"
     transform="matrix(1.3201668,0,0,1.3201668,-74.605266,-56.6708)" /><polygon
     points="85.001,149.557 72.311,127.576 59.62,149.557 "
     id="polygon28"
     style="fill:#ffd056"
     transform="matrix(1.3201668,0,0,1.3201668,-74.605266,-56.6708)" /><polygon
     stroke-miterlimit="10"
     points="85.001,149.557 72.311,127.576 59.62,149.557 "
     id="polygon30"
     style="fill:none;stroke:#ffd056;stroke-miterlimit:10"
     transform="matrix(1.3201668,0,0,1.3201668,-74.605266,-56.6708)" /><polygon
     points="116.317,149.557 103.626,127.576 90.936,149.557 "
     id="polygon32"
     style="fill:#ffd056"
     transform="matrix(1.3201668,0,0,1.3201668,-74.605266,-56.6708)" /><polygon
     stroke-miterlimit="10"
     points="116.317,149.557 103.626,127.576 90.936,149.557 "
     id="polygon34"
     style="fill:none;stroke:#ffd056;stroke-miterlimit:10"
     transform="matrix(1.3201668,0,0,1.3201668,-74.605266,-56.6708)" /><polygon
     points="68.929,125.142 57.012,125.142 57.012,145.782 "
     id="polygon36"
     style="fill:#ffd056"
     transform="matrix(1.3201668,0,0,1.3201668,-74.605266,-56.6708)" /><polygon
     stroke-miterlimit="10"
     points="68.929,125.142 57.012,125.142 57.012,145.782 "
     id="polygon38"
     style="fill:none;stroke:#ffd056;stroke-miterlimit:10"
     transform="matrix(1.3201668,0,0,1.3201668,-74.605266,-56.6708)" /><polygon
     points="101.943,176.545 89.252,154.564 76.561,176.545 "
     id="polygon40"
     style="fill:#ffd056"
     transform="matrix(1.3201668,0,0,1.3201668,-74.605266,-56.6708)" /><polygon
     stroke-miterlimit="10"
     points="101.943,176.545 89.252,154.564 76.561,176.545 "
     id="polygon42"
     style="fill:none;stroke:#ffd056;stroke-miterlimit:10"
     transform="matrix(1.3201668,0,0,1.3201668,-74.605266,-56.6708)" /><polygon
     points="72.311,174.917 85.001,152.937 59.62,152.937 "
     id="polygon44"
     style="fill:#ffd056"
     transform="matrix(1.3201668,0,0,1.3201668,-74.605266,-56.6708)" /><polygon
     stroke-miterlimit="10"
     points="72.311,174.917 85.001,152.937 59.62,152.937 "
     id="polygon46"
     style="fill:none;stroke:#ffd056;stroke-miterlimit:10"
     transform="matrix(1.3201668,0,0,1.3201668,-74.605266,-56.6708)" /><polygon
     points="120.495,147.782 133.186,125.801 107.804,125.801 "
     id="polygon48"
     style="fill:#ffd056"
     transform="matrix(1.3201668,0,0,1.3201668,-74.605266,-56.6708)" /><polygon
     stroke-miterlimit="10"
     points="120.495,147.782 133.186,125.801 107.804,125.801 "
     id="polygon50"
     style="fill:none;stroke:#ffd056;stroke-miterlimit:10"
     transform="matrix(1.3201668,0,0,1.3201668,-74.605266,-56.6708)" /><polygon
     points="133.455,176.545 120.765,154.564 108.074,176.545 "
     id="polygon52"
     style="fill:#ffd056"
     transform="matrix(1.3201668,0,0,1.3201668,-74.605266,-56.6708)" /><polygon
     stroke-miterlimit="10"
     points="133.455,176.545 120.765,154.564 108.074,176.545 "
     id="polygon54"
     style="fill:none;stroke:#ffd056;stroke-miterlimit:10"
     transform="matrix(1.3201668,0,0,1.3201668,-74.605266,-56.6708)" /><polygon
     points="122.15,202.27 134.841,180.289 109.459,180.289 "
     id="polygon56"
     style="fill:#ffe189"
     transform="matrix(1.3201668,0,0,1.3201668,-74.605266,-56.6708)" /><polygon
     stroke-miterlimit="10"
     points="122.15,202.27 134.841,180.289 109.459,180.289 "
     id="polygon58"
     style="fill:none;stroke:#ffe189;stroke-miterlimit:10"
     transform="matrix(1.3201668,0,0,1.3201668,-74.605266,-56.6708)" /><polygon
     points="119.081,203.534 106.391,181.553 93.7,203.534 "
     id="polygon60"
     style="fill:#ffe189"
     transform="matrix(1.3201668,0,0,1.3201668,-74.605266,-56.6708)" /><polygon
     stroke-miterlimit="10"
     points="119.081,203.534 106.391,181.553 93.7,203.534 "
     id="polygon62"
     style="fill:none;stroke:#ffe189;stroke-miterlimit:10"
     transform="matrix(1.3201668,0,0,1.3201668,-74.605266,-56.6708)" /><polygon
     points="85.413,204.828 72.722,182.847 60.031,204.828 "
     id="polygon64"
     style="fill:#ffd056"
     transform="matrix(1.3201668,0,0,1.3201668,-74.605266,-56.6708)" /><polygon
     stroke-miterlimit="10"
     points="85.413,204.828 72.722,182.847 60.031,204.828 "
     id="polygon66"
     style="fill:none;stroke:#ffd056;stroke-miterlimit:10"
     transform="matrix(1.3201668,0,0,1.3201668,-74.605266,-56.6708)" /><polygon
     points="216.722,205.347 229.413,183.366 204.031,183.366 "
     id="polygon68"
     style="fill:#ffe189"
     transform="matrix(1.3201668,0,0,1.3201668,-74.605266,-56.6708)" /><polygon
     stroke-miterlimit="10"
     points="216.722,205.347 229.413,183.366 204.031,183.366 "
     id="polygon70"
     style="fill:none;stroke:#ffe189;stroke-miterlimit:10"
     transform="matrix(1.3201668,0,0,1.3201668,-74.605266,-56.6708)" /><polygon
     points="136.022,231.99 123.332,210.009 110.641,231.99 "
     id="polygon72"
     style="fill:#ffe189"
     transform="matrix(1.3201668,0,0,1.3201668,-74.605266,-56.6708)" /><polygon
     stroke-miterlimit="10"
     points="136.022,231.99 123.332,210.009 110.641,231.99 "
     id="polygon74"
     style="fill:none;stroke:#ffe189;stroke-miterlimit:10"
     transform="matrix(1.3201668,0,0,1.3201668,-74.605266,-56.6708)" /><polygon
     points="106.391,230.362 119.081,208.381 93.7,208.381 "
     id="polygon76"
     style="fill:#ffe189"
     transform="matrix(1.3201668,0,0,1.3201668,-74.605266,-56.6708)" /><polygon
     stroke-miterlimit="10"
     points="106.391,230.362 119.081,208.381 93.7,208.381 "
     id="polygon78"
     style="fill:none;stroke:#ffe189;stroke-miterlimit:10"
     transform="matrix(1.3201668,0,0,1.3201668,-74.605266,-56.6708)" /><polygon
     points="89.945,203.454 102.635,181.473 77.254,181.473 "
     id="polygon80"
     style="fill:#ffd056"
     transform="matrix(1.3201668,0,0,1.3201668,-74.605266,-56.6708)" /><polygon
     stroke-miterlimit="10"
     points="89.945,203.454 102.635,181.473 77.254,181.473 "
     id="polygon82"
     style="fill:none;stroke:#ffd056;stroke-miterlimit:10"
     transform="matrix(1.3201668,0,0,1.3201668,-74.605266,-56.6708)" /><polygon
     points="102.015,232.322 89.324,210.341 76.633,232.322 "
     id="polygon84"
     style="fill:#fff6bf"
     transform="matrix(1.3201668,0,0,1.3201668,-74.605266,-56.6708)" /><polygon
     stroke-miterlimit="10"
     points="102.015,232.322 89.324,210.341 76.633,232.322 "
     id="polygon86"
     style="fill:none;stroke:#fff6bf;stroke-miterlimit:10"
     transform="matrix(1.3201668,0,0,1.3201668,-74.605266,-56.6708)" /><polygon
     points="90.936,257.19 103.626,235.208 78.246,235.208 "
     id="polygon88"
     style="fill:#ffe189"
     transform="matrix(1.3201668,0,0,1.3201668,-74.605266,-56.6708)" /><polygon
     stroke-miterlimit="10"
     points="90.936,257.19 103.626,235.208 78.246,235.208 "
     id="polygon90"
     style="fill:none;stroke:#ffe189;stroke-miterlimit:10"
     transform="matrix(1.3201668,0,0,1.3201668,-74.605266,-56.6708)" /><polygon
     points="150.403,150.143 137.712,128.162 125.022,150.143 "
     id="polygon92"
     style="fill:#ffd056"
     transform="matrix(1.3201668,0,0,1.3201668,-74.605266,-56.6708)" /><polygon
     stroke-miterlimit="10"
     points="150.403,150.143 137.712,128.162 125.022,150.143 "
     id="polygon94"
     style="fill:none;stroke:#ffd056;stroke-miterlimit:10"
     transform="matrix(1.3201668,0,0,1.3201668,-74.605266,-56.6708)" /><polygon
     points="139.098,175.868 151.789,153.887 126.407,153.887 "
     id="polygon96"
     style="fill:#ffd056"
     transform="matrix(1.3201668,0,0,1.3201668,-74.605266,-56.6708)" /><polygon
     stroke-miterlimit="10"
     points="139.098,175.868 151.789,153.887 126.407,153.887 "
     id="polygon98"
     style="fill:none;stroke:#ffd056;stroke-miterlimit:10"
     transform="matrix(1.3201668,0,0,1.3201668,-74.605266,-56.6708)" /><polygon
     points="153.571,147.855 166.262,125.874 140.88,125.874 "
     id="polygon100"
     style="fill:#ffd056"
     transform="matrix(1.3201668,0,0,1.3201668,-74.605266,-56.6708)" /><polygon
     stroke-miterlimit="10"
     points="153.571,147.855 166.262,125.874 140.88,125.874 "
     id="polygon102"
     style="fill:none;stroke:#ffd056;stroke-miterlimit:10"
     transform="matrix(1.3201668,0,0,1.3201668,-74.605266,-56.6708)" /><polygon
     points="166.262,179.863 153.571,157.882 140.88,179.863 "
     id="polygon104"
     style="fill:#ffe189"
     transform="matrix(1.3201668,0,0,1.3201668,-74.605266,-56.6708)" /><polygon
     stroke-miterlimit="10"
     points="166.262,179.863 153.571,157.882 140.88,179.863 "
     id="polygon106"
     style="fill:none;stroke:#ffe189;stroke-miterlimit:10"
     transform="matrix(1.3201668,0,0,1.3201668,-74.605266,-56.6708)" /><polygon
     points="153.571,205.224 166.262,183.243 140.88,183.243 "
     id="polygon108"
     style="fill:#ffe189"
     transform="matrix(1.3201668,0,0,1.3201668,-74.605266,-56.6708)" /><polygon
     stroke-miterlimit="10"
     points="153.571,205.224 166.262,183.243 140.88,183.243 "
     id="polygon110"
     style="fill:none;stroke:#ffe189;stroke-miterlimit:10"
     transform="matrix(1.3201668,0,0,1.3201668,-74.605266,-56.6708)" /><polygon
     points="131.772,122.567 119.081,100.586 106.391,122.567 "
     id="polygon112"
     style="fill:#ffd056"
     transform="matrix(1.3201668,0,0,1.3201668,-74.605266,-56.6708)" /><polygon
     stroke-miterlimit="10"
     points="131.772,122.567 119.081,100.586 106.391,122.567 "
     id="polygon114"
     style="fill:none;stroke:#ffd056;stroke-miterlimit:10"
     transform="matrix(1.3201668,0,0,1.3201668,-74.605266,-56.6708)" /><polygon
     points="139.001,230.917 151.692,208.936 126.311,208.936 "
     id="polygon116"
     style="fill:#fff6bf"
     transform="matrix(1.3201668,0,0,1.3201668,-74.605266,-56.6708)" /><polygon
     stroke-miterlimit="10"
     points="139.001,230.917 151.692,208.936 126.311,208.936 "
     id="polygon118"
     style="fill:none;stroke:#fff6bf;stroke-miterlimit:10"
     transform="matrix(1.3201668,0,0,1.3201668,-74.605266,-56.6708)" /><polygon
     points="153.644,256.278 166.334,234.297 140.953,234.297 "
     id="polygon120"
     style="fill:#fff6bf"
     transform="matrix(1.3201668,0,0,1.3201668,-74.605266,-56.6708)" /><polygon
     stroke-miterlimit="10"
     points="153.644,256.278 166.334,234.297 140.953,234.297 "
     id="polygon122"
     style="fill:none;stroke:#fff6bf;stroke-miterlimit:10"
     transform="matrix(1.3201668,0,0,1.3201668,-74.605266,-56.6708)" /><polygon
     points="182.545,257.107 169.854,235.126 157.163,257.107 "
     id="polygon124"
     style="fill:#fff6bf"
     transform="matrix(1.3201668,0,0,1.3201668,-74.605266,-56.6708)" /><polygon
     stroke-miterlimit="10"
     points="182.545,257.107 169.854,235.126 157.163,257.107 "
     id="polygon126"
     style="fill:none;stroke:#fff6bf;stroke-miterlimit:10"
     transform="matrix(1.3201668,0,0,1.3201668,-74.605266,-56.6708)" /><polygon
     points="169.854,282.467 182.545,260.487 157.163,260.487 "
     id="polygon128"
     style="fill:#fff6bf"
     transform="matrix(1.3201668,0,0,1.3201668,-74.605266,-56.6708)" /><polygon
     stroke-miterlimit="10"
     points="169.854,282.467 182.545,260.487 157.163,260.487 "
     id="polygon130"
     style="fill:none;stroke:#fff6bf;stroke-miterlimit:10"
     transform="matrix(1.3201668,0,0,1.3201668,-74.605266,-56.6708)" /><polygon
     points="122.24,257.107 134.931,235.126 109.55,235.126 "
     id="polygon132"
     style="fill:#fff6bf"
     transform="matrix(1.3201668,0,0,1.3201668,-74.605266,-56.6708)" /><polygon
     stroke-miterlimit="10"
     points="122.24,257.107 134.931,235.126 109.55,235.126 "
     id="polygon134"
     style="fill:none;stroke:#fff6bf;stroke-miterlimit:10"
     transform="matrix(1.3201668,0,0,1.3201668,-74.605266,-56.6708)" /><polygon
     points="150.772,259.834 138.081,237.854 125.391,259.834 "
     id="polygon136"
     style="fill:#fff6bf"
     transform="matrix(1.3201668,0,0,1.3201668,-74.605266,-56.6708)" /><polygon
     stroke-miterlimit="10"
     points="150.772,259.834 138.081,237.854 125.391,259.834 "
     id="polygon138"
     style="fill:none;stroke:#fff6bf;stroke-miterlimit:10"
     transform="matrix(1.3201668,0,0,1.3201668,-74.605266,-56.6708)" /><polygon
     points="185.047,254.915 197.738,232.933 172.356,232.933 "
     id="polygon140"
     style="fill:#fff6bf"
     transform="matrix(1.3201668,0,0,1.3201668,-74.605266,-56.6708)" /><polygon
     stroke-miterlimit="10"
     points="185.047,254.915 197.738,232.933 172.356,232.933 "
     id="polygon142"
     style="fill:none;stroke:#fff6bf;stroke-miterlimit:10"
     transform="matrix(1.3201668,0,0,1.3201668,-74.605266,-56.6708)" /><polygon
     points="197.531,230.553 184.84,208.572 172.149,230.553 "
     id="polygon144"
     style="fill:#fff6bf"
     transform="matrix(1.3201668,0,0,1.3201668,-74.605266,-56.6708)" /><polygon
     stroke-miterlimit="10"
     points="197.531,230.553 184.84,208.572 172.149,230.553 "
     id="polygon146"
     style="fill:none;stroke:#fff6bf;stroke-miterlimit:10"
     transform="matrix(1.3201668,0,0,1.3201668,-74.605266,-56.6708)" /><polygon
     points="215.794,255.674 203.103,233.694 190.412,255.674 "
     id="polygon148"
     style="fill:#fff6bf"
     transform="matrix(1.3201668,0,0,1.3201668,-74.605266,-56.6708)" /><polygon
     stroke-miterlimit="10"
     points="215.794,255.674 203.103,233.694 190.412,255.674 "
     id="polygon150"
     style="fill:none;stroke:#fff6bf;stroke-miterlimit:10"
     transform="matrix(1.3201668,0,0,1.3201668,-74.605266,-56.6708)" /><polygon
     points="134.931,285.064 122.24,263.083 109.55,285.064 "
     id="polygon152"
     style="fill:#fff6bf"
     transform="matrix(1.3201668,0,0,1.3201668,-74.605266,-56.6708)" /><polygon
     stroke-miterlimit="10"
     points="134.931,285.064 122.24,263.083 109.55,285.064 "
     id="polygon154"
     style="fill:none;stroke:#fff6bf;stroke-miterlimit:10"
     transform="matrix(1.3201668,0,0,1.3201668,-74.605266,-56.6708)" /><polygon
     points="218.341,307.045 231.031,285.064 205.65,285.064 "
     id="polygon156"
     style="fill:#fff6bf"
     transform="matrix(1.3201668,0,0,1.3201668,-74.605266,-56.6708)" /><polygon
     stroke-miterlimit="10"
     points="218.341,307.045 231.031,285.064 205.65,285.064 "
     id="polygon158"
     style="fill:none;stroke:#fff6bf;stroke-miterlimit:10"
     transform="matrix(1.3201668,0,0,1.3201668,-74.605266,-56.6708)" /><polygon
     points="185.047,205.309 197.738,183.328 172.356,183.328 "
     id="polygon160"
     style="fill:#fff6bf"
     transform="matrix(1.3201668,0,0,1.3201668,-74.605266,-56.6708)" /><polygon
     stroke-miterlimit="10"
     points="185.047,205.309 197.738,183.328 172.356,183.328 "
     id="polygon162"
     style="fill:none;stroke:#fff6bf;stroke-miterlimit:10"
     transform="matrix(1.3201668,0,0,1.3201668,-74.605266,-56.6708)" /><polygon
     points="68.928,70.347 57.345,70.347 57.345,90.409 "
     id="polygon164"
     style="fill:#ffd056"
     transform="matrix(1.3201668,0,0,1.3201668,-74.605266,-56.6708)" /><polygon
     stroke-miterlimit="10"
     points="68.928,70.347 57.345,70.347 57.345,90.409 "
     id="polygon166"
     style="fill:none;stroke:#ffd056;stroke-miterlimit:10"
     transform="matrix(1.3201668,0,0,1.3201668,-74.605266,-56.6708)" /><polygon
     points="137.341,119.328 150.031,97.347 124.65,97.347 "
     id="polygon168"
     style="fill:#ffd056"
     transform="matrix(1.3201668,0,0,1.3201668,-74.605266,-56.6708)" /><polygon
     stroke-miterlimit="10"
     points="137.341,119.328 150.031,97.347 124.65,97.347 "
     id="polygon170"
     style="fill:none;stroke:#ffd056;stroke-miterlimit:10"
     transform="matrix(1.3201668,0,0,1.3201668,-74.605266,-56.6708)" /><polygon
     points="568.513,1848.41 593.894,1848.41 581.202,1826.43 "
     id="polygon172"
     style="fill:#ffd056"
     transform="translate(-56.512,41.95499)" /><polygon
     stroke-miterlimit="10"
     points="568.513,1848.41 593.894,1848.41 581.202,1826.43 "
     id="polygon174"
     style="fill:none;stroke:#ffd056;stroke-miterlimit:10"
     transform="translate(-56.512,41.95499)" /><polygon
     points="569.897,1852.152 582.589,1874.135 595.278,1852.152 "
     id="polygon176"
     style="fill:#ffe189"
     transform="translate(-56.512,41.95499)" /><polygon
     stroke-miterlimit="10"
     points="569.897,1852.152 582.589,1874.135 595.278,1852.152 "
     id="polygon178"
     style="fill:none;stroke:#ffe189;stroke-miterlimit:10"
     transform="translate(-56.512,41.95499)" /><polygon
     points="554.138,1875.398 579.519,1875.398 566.829,1853.418 "
     id="polygon180"
     style="fill:#ffe189"
     transform="translate(-56.512,41.95499)" /><polygon
     stroke-miterlimit="10"
     points="554.138,1875.398 579.519,1875.398 566.829,1853.418 "
     id="polygon182"
     style="fill:none;stroke:#ffe189;stroke-miterlimit:10"
     transform="translate(-56.512,41.95499)" /><polygon
     points="520.47,1876.693 545.851,1876.693 533.159,1854.711 "
     id="polygon184"
     style="fill:#ffd056"
     transform="translate(-56.512,41.95499)" /><polygon
     stroke-miterlimit="10"
     points="520.47,1876.693 545.851,1876.693 533.159,1854.711 "
     id="polygon186"
     style="fill:none;stroke:#ffd056;stroke-miterlimit:10"
     transform="translate(-56.512,41.95499)" /><polygon
     points="571.079,1903.855 596.46,1903.855 583.771,1881.873 "
     id="polygon188"
     style="fill:#ffe189"
     transform="translate(-56.512,41.95499)" /><polygon
     stroke-miterlimit="10"
     points="571.079,1903.855 596.46,1903.855 583.771,1881.873 "
     id="polygon190"
     style="fill:none;stroke:#ffe189;stroke-miterlimit:10"
     transform="translate(-56.512,41.95499)" /><polygon
     points="554.138,1880.246 566.829,1902.227 579.519,1880.246 "
     id="polygon192"
     style="fill:#ffe189"
     transform="translate(-56.512,41.95499)" /><polygon
     stroke-miterlimit="10"
     points="554.138,1880.246 566.829,1902.227 579.519,1880.246 "
     id="polygon194"
     style="fill:none;stroke:#ffe189;stroke-miterlimit:10"
     transform="translate(-56.512,41.95499)" /><polygon
     points="585.46,1822.008 610.841,1822.008 598.151,1800.027 "
     id="polygon196"
     style="fill:#ffd056"
     transform="translate(-56.512,41.95499)" /><polygon
     stroke-miterlimit="10"
     points="585.46,1822.008 610.841,1822.008 598.151,1800.027 "
     id="polygon198"
     style="fill:none;stroke:#ffd056;stroke-miterlimit:10"
     transform="translate(-56.512,41.95499)" /><polygon
     points="586.845,1825.752 599.536,1847.732 612.226,1825.752 "
     id="polygon200"
     style="fill:#ffd056"
     transform="translate(-56.512,41.95499)" /><polygon
     stroke-miterlimit="10"
     points="586.845,1825.752 599.536,1847.732 612.226,1825.752 "
     id="polygon202"
     style="fill:none;stroke:#ffd056;stroke-miterlimit:10"
     transform="translate(-56.512,41.95499)" /><polygon
     points="601.317,1851.729 626.7,1851.729 614.009,1829.746 "
     id="polygon204"
     style="fill:#ffe189"
     transform="translate(-56.512,41.95499)" /><polygon
     stroke-miterlimit="10"
     points="601.317,1851.729 626.7,1851.729 614.009,1829.746 "
     id="polygon206"
     style="fill:none;stroke:#ffe189;stroke-miterlimit:10"
     transform="translate(-56.512,41.95499)" /><polygon
     points="601.317,1855.107 614.009,1877.088 626.7,1855.107 "
     id="polygon208"
     style="fill:#ffe189"
     transform="translate(-56.512,41.95499)" /><polygon
     stroke-miterlimit="10"
     points="601.317,1855.107 614.009,1877.088 626.7,1855.107 "
     id="polygon210"
     style="fill:none;stroke:#ffe189;stroke-miterlimit:10"
     transform="translate(-56.512,41.95499)" /><polygon
     points="586.749,1880.801 599.438,1902.781 612.13,1880.801 "
     id="polygon212"
     style="fill:#fff6bf"
     transform="translate(-56.512,41.95499)" /><polygon
     stroke-miterlimit="10"
     points="586.749,1880.801 599.438,1902.781 612.13,1880.801 "
     id="polygon214"
     style="fill:none;stroke:#fff6bf;stroke-miterlimit:10"
     transform="translate(-56.512,41.95499)" /><polygon
     points="616.966,1826.424 629.657,1848.404 642.349,1826.424 "
     id="polygon216"
     style="fill:#ffd056"
     transform="translate(-56.512,41.95499)" /><polygon
     stroke-miterlimit="10"
     points="616.966,1826.424 629.657,1848.404 642.349,1826.424 "
     id="polygon218"
     style="fill:none;stroke:#ffd056;stroke-miterlimit:10"
     transform="translate(-56.512,41.95499)" /><polygon
     points="632.794,1855.193 644.263,1875.059 644.263,1855.193 "
     id="polygon220"
     style="fill:#fff6bf"
     transform="translate(-56.512,41.95499)" /><polygon
     stroke-miterlimit="10"
     points="632.794,1855.193 644.263,1875.059 644.263,1855.193 "
     id="polygon222"
     style="fill:none;stroke:#fff6bf;stroke-miterlimit:10"
     transform="translate(-56.512,41.95499)" /><polygon
     points="492.466,1881.873 505.157,1903.855 517.849,1881.873 "
     id="polygon224"
     style="fill:#ffd056"
     transform="translate(-56.512,41.95499)" /><polygon
     stroke-miterlimit="10"
     points="492.466,1881.873 505.157,1903.855 517.849,1881.873 "
     id="polygon226"
     style="fill:none;stroke:#ffd056;stroke-miterlimit:10"
     transform="translate(-56.512,41.95499)" /><polygon
     points="551.845,1826.43 564.536,1848.41 577.226,1826.43 "
     id="polygon228"
     style="fill:#ffd056"
     transform="translate(-56.512,41.95499)" /><polygon
     stroke-miterlimit="10"
     points="551.845,1826.43 564.536,1848.41 577.226,1826.43 "
     id="polygon230"
     style="fill:none;stroke:#ffd056;stroke-miterlimit:10"
     transform="translate(-56.512,41.95499)" /><polygon
     points="101.34,67.04 88.649,45.059 75.958,67.04 "
     id="polygon232"
     style="fill:#ffd056"
     transform="matrix(1.3201668,0,0,1.3201668,-74.605266,-56.6708)" /><polygon
     stroke-miterlimit="10"
     points="101.34,67.04 88.649,45.059 75.958,67.04 "
     id="polygon234"
     style="fill:none;stroke:#ffd056;stroke-miterlimit:10"
     transform="matrix(1.3201668,0,0,1.3201668,-74.605266,-56.6708)" /><polygon
     points="106.391,65.408 119.081,43.427 93.7,43.427 "
     id="polygon236"
     style="fill:#ffd056"
     transform="matrix(1.3201668,0,0,1.3201668,-74.605266,-56.6708)" /><polygon
     stroke-miterlimit="10"
     points="106.391,65.408 119.081,43.427 93.7,43.427 "
     id="polygon238"
     style="fill:none;stroke:#ffd056;stroke-miterlimit:10"
     transform="matrix(1.3201668,0,0,1.3201668,-74.605266,-56.6708)" /><path
     d="m 63.147539,158.67085 c 4.246976,0 4.254897,-6.60083 0,-6.60083 -4.246977,0 -4.254898,6.60083 0,6.60083"
     id="path240"
     inkscape:connector-curvature="0"
     style="fill:#e73e25;stroke-width:1.32016683" /><path
     d="m 542.251,1914.691 c 3.217,0 3.223,-5 0,-5 -3.217,0 -3.223,5 0,5"
     id="path242"
     inkscape:connector-curvature="0"
     style="fill:#e73e25" /><path
     d="m 61.827372,87.381844 c 4.246976,0 4.254897,-6.600834 0,-6.600834 -4.246977,0 -4.254898,6.600834 0,6.600834"
     id="path244"
     inkscape:connector-curvature="0"
     style="fill:#e73e25;stroke-width:1.32016683" /></svg>