<?xml version="1.0" encoding="UTF-8" standalone="no"?>
<!-- Generator: Adobe Illustrator 16.0.0, SVG Export Plug-In . SVG Version: 6.00 Build 0)  -->

<svg
   xmlns:dc="http://purl.org/dc/elements/1.1/"
   xmlns:cc="http://creativecommons.org/ns#"
   xmlns:rdf="http://www.w3.org/1999/02/22-rdf-syntax-ns#"
   xmlns:svg="http://www.w3.org/2000/svg"
   xmlns="http://www.w3.org/2000/svg"
   xmlns:sodipodi="http://sodipodi.sourceforge.net/DTD/sodipodi-0.dtd"
   xmlns:inkscape="http://www.inkscape.org/namespaces/inkscape"
   version="1.1"
   id="Layer_1"
   x="0px"
   y="0px"
   width="359.50543"
   height="350"
   viewBox="0 0 359.50543 350"
   enable-background="new 0 0 612 792"
   xml:space="preserve"
   sodipodi:docname="top_right_triangles.svg"
   inkscape:version="0.92.2 (unknown)"><metadata
     id="metadata183"><rdf:RDF><cc:Work
         rdf:about=""><dc:format>image/svg+xml</dc:format><dc:type
           rdf:resource="http://purl.org/dc/dcmitype/StillImage" /></cc:Work></rdf:RDF></metadata><defs
     id="defs181" /><sodipodi:namedview
     pagecolor="#ffffff"
     bordercolor="#666666"
     borderopacity="1"
     objecttolerance="10"
     gridtolerance="10"
     guidetolerance="10"
     inkscape:pageopacity="0"
     inkscape:pageshadow="2"
     inkscape:window-width="1863"
     inkscape:window-height="1056"
     id="namedview179"
     showgrid="false"
     inkscape:zoom="0.2979798"
     inkscape:cx="260.34896"
     inkscape:cy="-178.94176"
     inkscape:window-x="57"
     inkscape:window-y="24"
     inkscape:window-maximized="1"
     inkscape:current-layer="Layer_1" /><path
     d="m 599.55296,2043.8248 v -3.672 H -48.387037 v 35.051 H 599.61196 v -30.59 c -0.035,-0.252 -0.059,-0.514 -0.059,-0.789"
     id="path2"
     inkscape:connector-curvature="0" /><polygon
     points="593.894,1848.41 581.202,1826.43 568.513,1848.41 "
     id="polygon4"
     style="fill:#ffd056"
     transform="translate(-45.651037,132.94177)" /><polygon
     stroke-miterlimit="10"
     points="593.894,1848.41 581.202,1826.43 568.513,1848.41 "
     id="polygon6"
     style="fill:none;stroke:#ffd056;stroke-miterlimit:10"
     transform="translate(-45.651037,132.94177)" /><polygon
     points="582.589,1874.135 595.278,1852.152 569.897,1852.152 "
     id="polygon8"
     style="fill:#ffe189"
     transform="translate(-45.651037,132.94177)" /><polygon
     stroke-miterlimit="10"
     points="582.589,1874.135 595.278,1852.152 569.897,1852.152 "
     id="polygon10"
     style="fill:none;stroke:#ffe189;stroke-miterlimit:10"
     transform="translate(-45.651037,132.94177)" /><polygon
     points="579.519,1875.398 566.829,1853.418 554.138,1875.398 "
     id="polygon12"
     style="fill:#ffe189"
     transform="translate(-45.651037,132.94177)" /><polygon
     stroke-miterlimit="10"
     points="579.519,1875.398 566.829,1853.418 554.138,1875.398 "
     id="polygon14"
     style="fill:none;stroke:#ffe189;stroke-miterlimit:10"
     transform="translate(-45.651037,132.94177)" /><polygon
     points="545.851,1876.693 533.159,1854.711 520.47,1876.693 "
     id="polygon16"
     style="fill:#ffd056"
     transform="translate(-45.651037,132.94177)" /><polygon
     stroke-miterlimit="10"
     points="545.851,1876.693 533.159,1854.711 520.47,1876.693 "
     id="polygon18"
     style="fill:none;stroke:#ffd056;stroke-miterlimit:10"
     transform="translate(-45.651037,132.94177)" /><polygon
     points="596.46,1903.855 583.771,1881.873 571.079,1903.855 "
     id="polygon20"
     style="fill:#ffe189"
     transform="translate(-45.651037,132.94177)" /><polygon
     stroke-miterlimit="10"
     points="596.46,1903.855 583.771,1881.873 571.079,1903.855 "
     id="polygon22"
     style="fill:none;stroke:#ffe189;stroke-miterlimit:10"
     transform="translate(-45.651037,132.94177)" /><polygon
     points="566.829,1902.227 579.519,1880.246 554.138,1880.246 "
     id="polygon24"
     style="fill:#ffe189"
     transform="translate(-45.651037,132.94177)" /><polygon
     stroke-miterlimit="10"
     points="566.829,1902.227 579.519,1880.246 554.138,1880.246 "
     id="polygon26"
     style="fill:none;stroke:#ffe189;stroke-miterlimit:10"
     transform="translate(-45.651037,132.94177)" /><polygon
     points="610.841,1822.008 598.151,1800.027 585.46,1822.008 "
     id="polygon28"
     style="fill:#ffd056"
     transform="translate(-45.651037,132.94177)" /><polygon
     stroke-miterlimit="10"
     points="610.841,1822.008 598.151,1800.027 585.46,1822.008 "
     id="polygon30"
     style="fill:none;stroke:#ffd056;stroke-miterlimit:10"
     transform="translate(-45.651037,132.94177)" /><polygon
     points="599.536,1847.732 612.226,1825.752 586.845,1825.752 "
     id="polygon32"
     style="fill:#ffd056"
     transform="translate(-45.651037,132.94177)" /><polygon
     stroke-miterlimit="10"
     points="599.536,1847.732 612.226,1825.752 586.845,1825.752 "
     id="polygon34"
     style="fill:none;stroke:#ffd056;stroke-miterlimit:10"
     transform="translate(-45.651037,132.94177)" /><polygon
     points="626.7,1851.729 614.009,1829.746 601.317,1851.729 "
     id="polygon36"
     style="fill:#ffe189"
     transform="translate(-45.651037,132.94177)" /><polygon
     stroke-miterlimit="10"
     points="626.7,1851.729 614.009,1829.746 601.317,1851.729 "
     id="polygon38"
     style="fill:none;stroke:#ffe189;stroke-miterlimit:10"
     transform="translate(-45.651037,132.94177)" /><polygon
     points="614.009,1877.088 626.7,1855.107 601.317,1855.107 "
     id="polygon40"
     style="fill:#ffe189"
     transform="translate(-45.651037,132.94177)" /><polygon
     stroke-miterlimit="10"
     points="614.009,1877.088 626.7,1855.107 601.317,1855.107 "
     id="polygon42"
     style="fill:none;stroke:#ffe189;stroke-miterlimit:10"
     transform="translate(-45.651037,132.94177)" /><polygon
     points="599.438,1902.781 612.13,1880.801 586.749,1880.801 "
     id="polygon44"
     style="fill:#fff6bf"
     transform="translate(-45.651037,132.94177)" /><polygon
     stroke-miterlimit="10"
     points="599.438,1902.781 612.13,1880.801 586.749,1880.801 "
     id="polygon46"
     style="fill:none;stroke:#fff6bf;stroke-miterlimit:10"
     transform="translate(-45.651037,132.94177)" /><polygon
     points="629.657,1848.404 642.349,1826.424 616.966,1826.424 "
     id="polygon48"
     style="fill:#ffd056"
     transform="translate(-45.651037,132.94177)" /><polygon
     stroke-miterlimit="10"
     points="629.657,1848.404 642.349,1826.424 616.966,1826.424 "
     id="polygon50"
     style="fill:none;stroke:#ffd056;stroke-miterlimit:10"
     transform="translate(-45.651037,132.94177)" /><polygon
     points="644.263,1875.059 644.263,1855.193 632.794,1855.193 "
     id="polygon52"
     style="fill:#fff6bf"
     transform="translate(-45.651037,132.94177)" /><polygon
     stroke-miterlimit="10"
     points="644.263,1875.059 644.263,1855.193 632.794,1855.193 "
     id="polygon54"
     style="fill:none;stroke:#fff6bf;stroke-miterlimit:10"
     transform="translate(-45.651037,132.94177)" /><polygon
     points="505.157,1903.855 517.849,1881.873 492.466,1881.873 "
     id="polygon56"
     style="fill:#ffd056"
     transform="translate(-45.651037,132.94177)" /><polygon
     stroke-miterlimit="10"
     points="505.157,1903.855 517.849,1881.873 492.466,1881.873 "
     id="polygon58"
     style="fill:none;stroke:#ffd056;stroke-miterlimit:10"
     transform="translate(-45.651037,132.94177)" /><polygon
     points="564.536,1848.41 577.226,1826.43 551.845,1826.43 "
     id="polygon60"
     style="fill:#ffd056"
     transform="translate(-45.651037,132.94177)" /><polygon
     stroke-miterlimit="10"
     points="564.536,1848.41 577.226,1826.43 551.845,1826.43 "
     id="polygon62"
     style="fill:none;stroke:#ffd056;stroke-miterlimit:10"
     transform="translate(-45.651037,132.94177)" /><polygon
     points="148.418,101.117 148.178,75.737 126.319,88.634 "
     id="polygon64"
     transform="matrix(2.230167,0,0,2.230167,-101.80943,-134.07609)"
     style="fill:#ffd056" /><polygon
     stroke-miterlimit="10"
     points="148.418,101.117 148.178,75.737 126.319,88.634 "
     id="polygon66"
     transform="matrix(2.230167,0,0,2.230167,-101.80943,-134.07609)"
     style="fill:none;stroke:#ffd056;stroke-miterlimit:10" /><polygon
     points="206.344,131.752 206.104,106.373 184.243,119.271 "
     id="polygon68"
     transform="matrix(2.230167,0,0,2.230167,-101.80943,-134.07609)"
     style="fill:#ffd056" /><polygon
     stroke-miterlimit="10"
     points="206.344,131.752 206.104,106.373 184.243,119.271 "
     id="polygon70"
     transform="matrix(2.230167,0,0,2.230167,-101.80943,-134.07609)"
     style="fill:none;stroke:#ffd056;stroke-miterlimit:10" /><polygon
     points="203.719,103.977 181.62,91.495 181.86,116.875 "
     id="polygon72"
     transform="matrix(2.230167,0,0,2.230167,-101.80943,-134.07609)"
     style="fill:#ffd056" /><polygon
     stroke-miterlimit="10"
     points="203.719,103.977 181.62,91.495 181.86,116.875 "
     id="polygon74"
     transform="matrix(2.230167,0,0,2.230167,-101.80943,-134.07609)"
     style="fill:none;stroke:#ffd056;stroke-miterlimit:10" /><polygon
     points="204.016,135.292 181.915,122.809 182.155,148.189 "
     id="polygon76"
     transform="matrix(2.230167,0,0,2.230167,-101.80943,-134.07609)"
     style="fill:#ffd056" /><polygon
     stroke-miterlimit="10"
     points="204.016,135.292 181.915,122.809 182.155,148.189 "
     id="polygon78"
     transform="matrix(2.230167,0,0,2.230167,-101.80943,-134.07609)"
     style="fill:none;stroke:#ffd056;stroke-miterlimit:10" /><polygon
     points="206.122,100.572 205.881,75.192 184.02,88.09 "
     id="polygon80"
     transform="matrix(2.230167,0,0,2.230167,-101.80943,-134.07609)"
     style="fill:#ffd056" /><polygon
     stroke-miterlimit="10"
     points="206.122,100.572 205.881,75.192 184.02,88.09 "
     id="polygon82"
     transform="matrix(2.230167,0,0,2.230167,-101.80943,-134.07609)"
     style="fill:none;stroke:#ffd056;stroke-miterlimit:10" /><polygon
     points="176.891,121.173 154.792,108.691 155.032,134.071 "
     id="polygon84"
     transform="matrix(2.230167,0,0,2.230167,-101.80943,-134.07609)"
     style="fill:#ffd056" /><polygon
     stroke-miterlimit="10"
     points="176.891,121.173 154.792,108.691 155.032,134.071 "
     id="polygon86"
     transform="matrix(2.230167,0,0,2.230167,-101.80943,-134.07609)"
     style="fill:none;stroke:#ffd056;stroke-miterlimit:10" /><polygon
     points="178.479,116.907 178.241,91.526 156.379,104.424 "
     id="polygon88"
     transform="matrix(2.230167,0,0,2.230167,-101.80943,-134.07609)"
     style="fill:#ffd056" /><polygon
     stroke-miterlimit="10"
     points="178.479,116.907 178.241,91.526 156.379,104.424 "
     id="polygon90"
     transform="matrix(2.230167,0,0,2.230167,-101.80943,-134.07609)"
     style="fill:none;stroke:#ffd056;stroke-miterlimit:10" /><polygon
     points="206.069,164.833 205.829,139.453 183.969,152.351 "
     id="polygon92"
     transform="matrix(2.230167,0,0,2.230167,-101.80943,-134.07609)"
     style="fill:#ffd056" /><polygon
     stroke-miterlimit="10"
     points="206.069,164.833 205.829,139.453 183.969,152.351 "
     id="polygon94"
     transform="matrix(2.230167,0,0,2.230167,-101.80943,-134.07609)"
     style="fill:none;stroke:#ffd056;stroke-miterlimit:10" /><polygon
     points="177.19,152.684 155.088,140.202 155.329,165.582 "
     id="polygon96"
     transform="matrix(2.230167,0,0,2.230167,-101.80943,-134.07609)"
     style="fill:#ffd056" /><polygon
     stroke-miterlimit="10"
     points="177.19,152.684 155.088,140.202 155.329,165.582 "
     id="polygon98"
     transform="matrix(2.230167,0,0,2.230167,-101.80943,-134.07609)"
     style="fill:none;stroke:#ffd056;stroke-miterlimit:10" /><polygon
     points="151.6,167.002 151.36,141.623 129.499,154.521 "
     id="polygon100"
     transform="matrix(2.230167,0,0,2.230167,-101.80943,-134.07609)"
     style="fill:#ffe189" /><polygon
     stroke-miterlimit="10"
     points="151.6,167.002 151.36,141.623 129.499,154.521 "
     id="polygon102"
     transform="matrix(2.230167,0,0,2.230167,-101.80943,-134.07609)"
     style="fill:none;stroke:#ffe189;stroke-miterlimit:10" /><polygon
     points="150.067,138.565 127.965,126.083 128.206,151.463 "
     id="polygon104"
     transform="matrix(2.230167,0,0,2.230167,-101.80943,-134.07609)"
     style="fill:#ffe189" /><polygon
     stroke-miterlimit="10"
     points="150.067,138.565 127.965,126.083 128.206,151.463 "
     id="polygon106"
     transform="matrix(2.230167,0,0,2.230167,-101.80943,-134.07609)"
     style="fill:none;stroke:#ffe189;stroke-miterlimit:10" /><polygon
     points="148.454,104.911 126.354,92.428 126.594,117.809 "
     id="polygon108"
     transform="matrix(2.230167,0,0,2.230167,-101.80943,-134.07609)"
     style="fill:#ffd056" /><polygon
     stroke-miterlimit="10"
     points="148.454,104.911 126.354,92.428 126.594,117.809 "
     id="polygon110"
     transform="matrix(2.230167,0,0,2.230167,-101.80943,-134.07609)"
     style="fill:none;stroke:#ffd056;stroke-miterlimit:10" /><polygon
     points="121.772,155.775 99.67,143.292 99.911,168.673 "
     id="polygon112"
     transform="matrix(2.230167,0,0,2.230167,-101.80943,-134.07609)"
     style="fill:#ffe189" /><polygon
     stroke-miterlimit="10"
     points="121.772,155.775 99.67,143.292 99.911,168.673 "
     id="polygon114"
     transform="matrix(2.230167,0,0,2.230167,-101.80943,-134.07609)"
     style="fill:none;stroke:#ffe189;stroke-miterlimit:10" /><polygon
     points="123.36,151.509 123.12,126.128 101.258,139.026 "
     id="polygon116"
     transform="matrix(2.230167,0,0,2.230167,-101.80943,-134.07609)"
     style="fill:#ffe189" /><polygon
     stroke-miterlimit="10"
     points="123.36,151.509 123.12,126.128 101.258,139.026 "
     id="polygon118"
     transform="matrix(2.230167,0,0,2.230167,-101.80943,-134.07609)"
     style="fill:none;stroke:#ffe189;stroke-miterlimit:10" /><polygon
     points="150.112,134.81 149.872,109.43 128.01,122.328 "
     id="polygon120"
     transform="matrix(2.230167,0,0,2.230167,-101.80943,-134.07609)"
     style="fill:#ffd056" /><polygon
     stroke-miterlimit="10"
     points="150.112,134.81 149.872,109.43 128.01,122.328 "
     id="polygon122"
     transform="matrix(2.230167,0,0,2.230167,-101.80943,-134.07609)"
     style="fill:none;stroke:#ffd056;stroke-miterlimit:10" /><polygon
     points="121.118,121.772 99.018,109.289 99.258,134.67 "
     id="polygon124"
     transform="matrix(2.230167,0,0,2.230167,-101.80943,-134.07609)"
     style="fill:#fff6bf" /><polygon
     stroke-miterlimit="10"
     points="121.118,121.772 99.018,109.289 99.258,134.67 "
     id="polygon126"
     transform="matrix(2.230167,0,0,2.230167,-101.80943,-134.07609)"
     style="fill:none;stroke:#fff6bf;stroke-miterlimit:10" /><polygon
     points="96.387,136.309 96.147,110.928 74.288,123.826 "
     id="polygon128"
     transform="matrix(2.230167,0,0,2.230167,-101.80943,-134.07609)"
     style="fill:#ffe189" /><polygon
     stroke-miterlimit="10"
     points="96.387,136.309 96.147,110.928 74.288,123.826 "
     id="polygon130"
     transform="matrix(2.230167,0,0,2.230167,-101.80943,-134.07609)"
     style="fill:none;stroke:#ffe189;stroke-miterlimit:10" /><polygon
     points="122.374,88.289 100.274,75.806 100.514,101.186 "
     id="polygon132"
     transform="matrix(2.230167,0,0,2.230167,-101.80943,-134.07609)"
     style="fill:#ffd056" /><polygon
     stroke-miterlimit="10"
     points="122.374,88.289 100.274,75.806 100.514,101.186 "
     id="polygon134"
     transform="matrix(2.230167,0,0,2.230167,-101.80943,-134.07609)"
     style="fill:none;stroke:#ffd056;stroke-miterlimit:10" /><polygon
     points="178.161,183.7 177.92,158.319 156.061,171.217 "
     id="polygon136"
     transform="matrix(2.230167,0,0,2.230167,-101.80943,-134.07609)"
     style="fill:#ffd056" /><polygon
     stroke-miterlimit="10"
     points="178.161,183.7 177.92,158.319 156.061,171.217 "
     id="polygon138"
     transform="matrix(2.230167,0,0,2.230167,-101.80943,-134.07609)"
     style="fill:none;stroke:#ffd056;stroke-miterlimit:10" /><polygon
     points="174.182,185.52 152.081,173.037 152.321,198.418 "
     id="polygon140"
     transform="matrix(2.230167,0,0,2.230167,-101.80943,-134.07609)"
     style="fill:#ffe189" /><polygon
     stroke-miterlimit="10"
     points="174.182,185.52 152.081,173.037 152.321,198.418 "
     id="polygon142"
     transform="matrix(2.230167,0,0,2.230167,-101.80943,-134.07609)"
     style="fill:none;stroke:#ffe189;stroke-miterlimit:10" /><polygon
     points="148.942,198.45 148.702,173.07 126.842,185.968 "
     id="polygon144"
     transform="matrix(2.230167,0,0,2.230167,-101.80943,-134.07609)"
     style="fill:#ffe189" /><polygon
     stroke-miterlimit="10"
     points="148.942,198.45 148.702,173.07 126.842,185.968 "
     id="polygon146"
     transform="matrix(2.230167,0,0,2.230167,-101.80943,-134.07609)"
     style="fill:none;stroke:#ffe189;stroke-miterlimit:10" /><polygon
     points="123.112,184.124 122.872,158.743 101.012,171.641 "
     id="polygon148"
     transform="matrix(2.230167,0,0,2.230167,-101.80943,-134.07609)"
     style="fill:#fff6bf" /><polygon
     stroke-miterlimit="10"
     points="123.112,184.124 122.872,158.743 101.012,171.641 "
     id="polygon150"
     transform="matrix(2.230167,0,0,2.230167,-101.80943,-134.07609)"
     style="fill:none;stroke:#fff6bf;stroke-miterlimit:10" /><polygon
     points="97.891,199.005 97.651,173.624 75.792,186.522 "
     id="polygon152"
     transform="matrix(2.230167,0,0,2.230167,-101.80943,-134.07609)"
     style="fill:#fff6bf" /><polygon
     stroke-miterlimit="10"
     points="97.891,199.005 97.651,173.624 75.792,186.522 "
     id="polygon154"
     transform="matrix(2.230167,0,0,2.230167,-101.80943,-134.07609)"
     style="fill:none;stroke:#fff6bf;stroke-miterlimit:10" /><polygon
     points="96.766,167.61 96.526,142.23 74.665,155.128 "
     id="polygon156"
     transform="matrix(2.230167,0,0,2.230167,-101.80943,-134.07609)"
     style="fill:#fff6bf" /><polygon
     stroke-miterlimit="10"
     points="96.766,167.61 96.526,142.23 74.665,155.128 "
     id="polygon158"
     transform="matrix(2.230167,0,0,2.230167,-101.80943,-134.07609)"
     style="fill:none;stroke:#fff6bf;stroke-miterlimit:10" /><polygon
     points="94.067,170.787 71.965,158.305 72.208,183.685 "
     id="polygon160"
     transform="matrix(2.230167,0,0,2.230167,-101.80943,-134.07609)"
     style="fill:#fff6bf" /><polygon
     stroke-miterlimit="10"
     points="94.067,170.787 71.965,158.305 72.208,183.685 "
     id="polygon162"
     transform="matrix(2.230167,0,0,2.230167,-101.80943,-134.07609)"
     style="fill:none;stroke:#fff6bf;stroke-miterlimit:10" /><polygon
     points="177.133,86.371 176.893,60.99 155.032,73.888 "
     id="polygon164"
     transform="matrix(2.230167,0,0,2.230167,-101.80943,-134.07609)"
     style="fill:#ffd056" /><polygon
     stroke-miterlimit="10"
     points="177.133,86.371 176.893,60.99 155.032,73.888 "
     id="polygon166"
     transform="matrix(2.230167,0,0,2.230167,-101.80943,-134.07609)"
     style="fill:none;stroke:#ffd056;stroke-miterlimit:10" /><polygon
     points="68.75,216.197 68.512,190.817 46.651,203.715 "
     id="polygon168"
     transform="matrix(2.230167,0,0,2.230167,-101.80943,-134.07609)"
     style="fill:#fff6bf" /><polygon
     stroke-miterlimit="10"
     points="68.75,216.197 68.512,190.817 46.651,203.715 "
     id="polygon170"
     transform="matrix(2.230167,0,0,2.230167,-101.80943,-134.07609)"
     style="fill:none;stroke:#fff6bf;stroke-miterlimit:10" /><path
     d="m 196.00706,251.13173 c 7.17445,0 7.18783,-11.15084 0,-11.15084 -7.17445,0 -7.18783,11.15084 0,11.15084"
     id="path172"
     inkscape:connector-curvature="0"
     style="fill:#e73e25;stroke-width:2.23016691" /><path
     d="m 255.85136,68.258036 c 7.17445,0 7.18783,-11.150834 0,-11.150834 -7.17445,0 -7.18783,11.150834 0,11.150834"
     id="path174"
     inkscape:connector-curvature="0"
     style="fill:#e73e25;stroke-width:2.23016691" /><path
     d="m 553.11196,2005.6778 c 3.217,0 3.223,-5 0,-5 -3.217,0 -3.223,5 0,5"
     id="path176"
     inkscape:connector-curvature="0"
     style="fill:#e73e25" /></svg>